G04 #@! TF.GenerationSoftware,KiCad,Pcbnew,(2017-01-20 revision 550a1ea4d)-master*
G04 #@! TF.CreationDate,2017-01-26T21:32:20+07:00*
G04 #@! TF.ProjectId,ULPI_PMOD,554C50495F504D4F442E6B696361645F,rev?*
G04 #@! TF.FileFunction,Copper,L2,Bot,Signal*
G04 #@! TF.FilePolarity,Positive*
%FSLAX46Y46*%
G04 Gerber Fmt 4.6, Leading zero omitted, Abs format (unit mm)*
G04 Created by KiCad (PCBNEW (2017-01-20 revision 550a1ea4d)-master) date Thu Jan 26 21:32:20 2017*
%MOMM*%
%LPD*%
G01*
G04 APERTURE LIST*
%ADD10C,0.100000*%
%ADD11O,1.550000X1.000000*%
%ADD12O,0.950000X1.250000*%
%ADD13O,1.700000X1.700000*%
%ADD14R,1.700000X1.700000*%
%ADD15C,0.800000*%
%ADD16C,0.375000*%
%ADD17C,0.250000*%
G04 APERTURE END LIST*
D10*
D11*
X75150000Y-67500000D03*
X75150000Y-60500000D03*
D12*
X77850000Y-66500000D03*
X77850000Y-61500000D03*
D13*
X100203000Y-62865000D03*
D14*
X100203000Y-60325000D03*
X76200000Y-76200000D03*
D13*
X76200000Y-78740000D03*
X78740000Y-76200000D03*
X78740000Y-78740000D03*
X81280000Y-76200000D03*
X81280000Y-78740000D03*
X83820000Y-76200000D03*
X83820000Y-78740000D03*
X86360000Y-76200000D03*
X86360000Y-78740000D03*
X88900000Y-76200000D03*
X88900000Y-78740000D03*
X111760000Y-78740000D03*
X111760000Y-76200000D03*
X109220000Y-78740000D03*
X109220000Y-76200000D03*
X106680000Y-78740000D03*
X106680000Y-76200000D03*
X104140000Y-78740000D03*
X104140000Y-76200000D03*
X101600000Y-78740000D03*
X101600000Y-76200000D03*
X99060000Y-78740000D03*
D14*
X99060000Y-76200000D03*
D15*
X96600000Y-65400000D03*
X92329000Y-61087000D03*
X97663000Y-71120000D03*
X90297000Y-71120000D03*
X92778153Y-64447847D03*
X97536000Y-67437010D03*
X89599994Y-70200000D03*
X98552000Y-70358000D03*
X89993438Y-66371442D03*
X89400000Y-67200000D03*
X93496430Y-63067267D03*
D16*
X92778153Y-65336847D02*
X88612490Y-69502510D01*
X88612490Y-70578002D02*
X89154488Y-71120000D01*
X92778153Y-64447847D02*
X92778153Y-65336847D01*
X89154488Y-71120000D02*
X89731315Y-71120000D01*
X89731315Y-71120000D02*
X90297000Y-71120000D01*
X88612490Y-69502510D02*
X88612490Y-70578002D01*
X111760000Y-76200000D02*
X111760000Y-74997919D01*
X111760000Y-74997919D02*
X107856580Y-71094499D01*
X107856580Y-71094499D02*
X99339501Y-71094499D01*
X111760000Y-78740000D02*
X111760000Y-76200000D01*
X88900000Y-76200000D02*
X88900000Y-72517000D01*
X88900000Y-72517000D02*
X90297000Y-71120000D01*
X88900000Y-78740000D02*
X88900000Y-76200000D01*
X99339501Y-71094499D02*
X98914001Y-71519999D01*
X98914001Y-71519999D02*
X98062999Y-71519999D01*
X98062999Y-71519999D02*
X97663000Y-71120000D01*
X97536000Y-67437010D02*
X99339501Y-69240511D01*
X99339501Y-69240511D02*
X99339501Y-71094499D01*
X90297000Y-71120000D02*
X97663000Y-71120000D01*
D17*
X98552000Y-70358000D02*
X89757994Y-70358000D01*
X89757994Y-70358000D02*
X89599994Y-70200000D01*
X89427753Y-66371442D02*
X89993438Y-66371442D01*
X89076558Y-66371442D02*
X89427753Y-66371442D01*
X80010000Y-77470000D02*
X80010000Y-75438000D01*
X78740000Y-78740000D02*
X80010000Y-77470000D01*
X80010000Y-75438000D02*
X89076558Y-66371442D01*
X89965685Y-67200000D02*
X89400000Y-67200000D01*
X90190200Y-67200000D02*
X89965685Y-67200000D01*
X91821000Y-65569200D02*
X90190200Y-67200000D01*
X91821000Y-64177012D02*
X91821000Y-65569200D01*
X92930745Y-63067267D02*
X91821000Y-64177012D01*
X93496430Y-63067267D02*
X92930745Y-63067267D01*
G36*
X113846000Y-82096000D02*
X74114000Y-82096000D01*
X74114000Y-78715922D01*
X74971000Y-78715922D01*
X74971000Y-78764078D01*
X75064552Y-79234396D01*
X75330966Y-79633112D01*
X75729682Y-79899526D01*
X76200000Y-79993078D01*
X76670318Y-79899526D01*
X77069034Y-79633112D01*
X77335448Y-79234396D01*
X77429000Y-78764078D01*
X77429000Y-78715922D01*
X77335448Y-78245604D01*
X77069034Y-77846888D01*
X76670318Y-77580474D01*
X76200000Y-77486922D01*
X75729682Y-77580474D01*
X75330966Y-77846888D01*
X75064552Y-78245604D01*
X74971000Y-78715922D01*
X74114000Y-78715922D01*
X74114000Y-75350000D01*
X74963575Y-75350000D01*
X74963575Y-77050000D01*
X74992990Y-77197878D01*
X75076756Y-77323244D01*
X75202122Y-77407010D01*
X75350000Y-77436425D01*
X77050000Y-77436425D01*
X77197878Y-77407010D01*
X77323244Y-77323244D01*
X77407010Y-77197878D01*
X77436425Y-77050000D01*
X77436425Y-76175922D01*
X77511000Y-76175922D01*
X77511000Y-76224078D01*
X77604552Y-76694396D01*
X77870966Y-77093112D01*
X78269682Y-77359526D01*
X78740000Y-77453078D01*
X79210318Y-77359526D01*
X79506000Y-77161957D01*
X79506000Y-77261236D01*
X79190670Y-77576566D01*
X78740000Y-77486922D01*
X78269682Y-77580474D01*
X77870966Y-77846888D01*
X77604552Y-78245604D01*
X77511000Y-78715922D01*
X77511000Y-78764078D01*
X77604552Y-79234396D01*
X77870966Y-79633112D01*
X78269682Y-79899526D01*
X78740000Y-79993078D01*
X79210318Y-79899526D01*
X79609034Y-79633112D01*
X79875448Y-79234396D01*
X79969000Y-78764078D01*
X79969000Y-78715922D01*
X80051000Y-78715922D01*
X80051000Y-78764078D01*
X80144552Y-79234396D01*
X80410966Y-79633112D01*
X80809682Y-79899526D01*
X81280000Y-79993078D01*
X81750318Y-79899526D01*
X82149034Y-79633112D01*
X82415448Y-79234396D01*
X82509000Y-78764078D01*
X82509000Y-78715922D01*
X82591000Y-78715922D01*
X82591000Y-78764078D01*
X82684552Y-79234396D01*
X82950966Y-79633112D01*
X83349682Y-79899526D01*
X83820000Y-79993078D01*
X84290318Y-79899526D01*
X84689034Y-79633112D01*
X84955448Y-79234396D01*
X85015154Y-78934233D01*
X85146445Y-78934233D01*
X85313151Y-79383855D01*
X85639230Y-79735456D01*
X86075040Y-79935508D01*
X86165767Y-79953554D01*
X86358000Y-79874248D01*
X86358000Y-78742000D01*
X86362000Y-78742000D01*
X86362000Y-79874248D01*
X86554233Y-79953554D01*
X86644960Y-79935508D01*
X87080770Y-79735456D01*
X87406849Y-79383855D01*
X87573555Y-78934233D01*
X87494249Y-78742000D01*
X86362000Y-78742000D01*
X86358000Y-78742000D01*
X85225751Y-78742000D01*
X85146445Y-78934233D01*
X85015154Y-78934233D01*
X85049000Y-78764078D01*
X85049000Y-78715922D01*
X85015155Y-78545767D01*
X85146445Y-78545767D01*
X85225751Y-78738000D01*
X86358000Y-78738000D01*
X86358000Y-77605752D01*
X86362000Y-77605752D01*
X86362000Y-78738000D01*
X87494249Y-78738000D01*
X87573555Y-78545767D01*
X87406849Y-78096145D01*
X87080770Y-77744544D01*
X86644960Y-77544492D01*
X86554233Y-77526446D01*
X86362000Y-77605752D01*
X86358000Y-77605752D01*
X86165767Y-77526446D01*
X86075040Y-77544492D01*
X85639230Y-77744544D01*
X85313151Y-78096145D01*
X85146445Y-78545767D01*
X85015155Y-78545767D01*
X84955448Y-78245604D01*
X84689034Y-77846888D01*
X84290318Y-77580474D01*
X83820000Y-77486922D01*
X83349682Y-77580474D01*
X82950966Y-77846888D01*
X82684552Y-78245604D01*
X82591000Y-78715922D01*
X82509000Y-78715922D01*
X82415448Y-78245604D01*
X82149034Y-77846888D01*
X81750318Y-77580474D01*
X81280000Y-77486922D01*
X80809682Y-77580474D01*
X80410966Y-77846888D01*
X80144552Y-78245604D01*
X80051000Y-78715922D01*
X79969000Y-78715922D01*
X79887346Y-78305418D01*
X80366382Y-77826382D01*
X80475635Y-77662873D01*
X80514000Y-77470000D01*
X80514000Y-77161957D01*
X80809682Y-77359526D01*
X81280000Y-77453078D01*
X81750318Y-77359526D01*
X82149034Y-77093112D01*
X82415448Y-76694396D01*
X82509000Y-76224078D01*
X82509000Y-76175922D01*
X82591000Y-76175922D01*
X82591000Y-76224078D01*
X82684552Y-76694396D01*
X82950966Y-77093112D01*
X83349682Y-77359526D01*
X83820000Y-77453078D01*
X84290318Y-77359526D01*
X84689034Y-77093112D01*
X84955448Y-76694396D01*
X85015154Y-76394233D01*
X85146445Y-76394233D01*
X85313151Y-76843855D01*
X85639230Y-77195456D01*
X86075040Y-77395508D01*
X86165767Y-77413554D01*
X86358000Y-77334248D01*
X86358000Y-76202000D01*
X86362000Y-76202000D01*
X86362000Y-77334248D01*
X86554233Y-77413554D01*
X86644960Y-77395508D01*
X87080770Y-77195456D01*
X87406849Y-76843855D01*
X87573555Y-76394233D01*
X87494249Y-76202000D01*
X86362000Y-76202000D01*
X86358000Y-76202000D01*
X85225751Y-76202000D01*
X85146445Y-76394233D01*
X85015154Y-76394233D01*
X85049000Y-76224078D01*
X85049000Y-76175922D01*
X85015155Y-76005767D01*
X85146445Y-76005767D01*
X85225751Y-76198000D01*
X86358000Y-76198000D01*
X86358000Y-75065752D01*
X86362000Y-75065752D01*
X86362000Y-76198000D01*
X87494249Y-76198000D01*
X87573555Y-76005767D01*
X87406849Y-75556145D01*
X87080770Y-75204544D01*
X86644960Y-75004492D01*
X86554233Y-74986446D01*
X86362000Y-75065752D01*
X86358000Y-75065752D01*
X86165767Y-74986446D01*
X86075040Y-75004492D01*
X85639230Y-75204544D01*
X85313151Y-75556145D01*
X85146445Y-76005767D01*
X85015155Y-76005767D01*
X84955448Y-75705604D01*
X84689034Y-75306888D01*
X84290318Y-75040474D01*
X83820000Y-74946922D01*
X83349682Y-75040474D01*
X82950966Y-75306888D01*
X82684552Y-75705604D01*
X82591000Y-76175922D01*
X82509000Y-76175922D01*
X82415448Y-75705604D01*
X82149034Y-75306888D01*
X81750318Y-75040474D01*
X81280000Y-74946922D01*
X81197415Y-74963349D01*
X88675138Y-67485626D01*
X88739210Y-67640692D01*
X88958156Y-67860019D01*
X89244367Y-67978865D01*
X89334904Y-67978944D01*
X88211914Y-69101934D01*
X88089112Y-69285720D01*
X88045990Y-69502510D01*
X88045990Y-70578002D01*
X88089112Y-70794792D01*
X88211914Y-70978578D01*
X88753912Y-71520576D01*
X88937698Y-71643378D01*
X88966701Y-71649147D01*
X88499424Y-72116424D01*
X88376622Y-72300210D01*
X88333500Y-72517000D01*
X88333500Y-75104741D01*
X88030966Y-75306888D01*
X87764552Y-75705604D01*
X87671000Y-76175922D01*
X87671000Y-76224078D01*
X87764552Y-76694396D01*
X88030966Y-77093112D01*
X88333500Y-77295259D01*
X88333500Y-77644741D01*
X88030966Y-77846888D01*
X87764552Y-78245604D01*
X87671000Y-78715922D01*
X87671000Y-78764078D01*
X87764552Y-79234396D01*
X88030966Y-79633112D01*
X88429682Y-79899526D01*
X88900000Y-79993078D01*
X89370318Y-79899526D01*
X89769034Y-79633112D01*
X90035448Y-79234396D01*
X90129000Y-78764078D01*
X90129000Y-78715922D01*
X97831000Y-78715922D01*
X97831000Y-78764078D01*
X97924552Y-79234396D01*
X98190966Y-79633112D01*
X98589682Y-79899526D01*
X99060000Y-79993078D01*
X99530318Y-79899526D01*
X99929034Y-79633112D01*
X100195448Y-79234396D01*
X100289000Y-78764078D01*
X100289000Y-78715922D01*
X100371000Y-78715922D01*
X100371000Y-78764078D01*
X100464552Y-79234396D01*
X100730966Y-79633112D01*
X101129682Y-79899526D01*
X101600000Y-79993078D01*
X102070318Y-79899526D01*
X102469034Y-79633112D01*
X102735448Y-79234396D01*
X102829000Y-78764078D01*
X102829000Y-78715922D01*
X102911000Y-78715922D01*
X102911000Y-78764078D01*
X103004552Y-79234396D01*
X103270966Y-79633112D01*
X103669682Y-79899526D01*
X104140000Y-79993078D01*
X104610318Y-79899526D01*
X105009034Y-79633112D01*
X105275448Y-79234396D01*
X105369000Y-78764078D01*
X105369000Y-78715922D01*
X105451000Y-78715922D01*
X105451000Y-78764078D01*
X105544552Y-79234396D01*
X105810966Y-79633112D01*
X106209682Y-79899526D01*
X106680000Y-79993078D01*
X107150318Y-79899526D01*
X107549034Y-79633112D01*
X107815448Y-79234396D01*
X107875154Y-78934233D01*
X108006445Y-78934233D01*
X108173151Y-79383855D01*
X108499230Y-79735456D01*
X108935040Y-79935508D01*
X109025767Y-79953554D01*
X109218000Y-79874248D01*
X109218000Y-78742000D01*
X109222000Y-78742000D01*
X109222000Y-79874248D01*
X109414233Y-79953554D01*
X109504960Y-79935508D01*
X109940770Y-79735456D01*
X110266849Y-79383855D01*
X110433555Y-78934233D01*
X110354249Y-78742000D01*
X109222000Y-78742000D01*
X109218000Y-78742000D01*
X108085751Y-78742000D01*
X108006445Y-78934233D01*
X107875154Y-78934233D01*
X107909000Y-78764078D01*
X107909000Y-78715922D01*
X107875155Y-78545767D01*
X108006445Y-78545767D01*
X108085751Y-78738000D01*
X109218000Y-78738000D01*
X109218000Y-77605752D01*
X109222000Y-77605752D01*
X109222000Y-78738000D01*
X110354249Y-78738000D01*
X110433555Y-78545767D01*
X110266849Y-78096145D01*
X109940770Y-77744544D01*
X109504960Y-77544492D01*
X109414233Y-77526446D01*
X109222000Y-77605752D01*
X109218000Y-77605752D01*
X109025767Y-77526446D01*
X108935040Y-77544492D01*
X108499230Y-77744544D01*
X108173151Y-78096145D01*
X108006445Y-78545767D01*
X107875155Y-78545767D01*
X107815448Y-78245604D01*
X107549034Y-77846888D01*
X107150318Y-77580474D01*
X106680000Y-77486922D01*
X106209682Y-77580474D01*
X105810966Y-77846888D01*
X105544552Y-78245604D01*
X105451000Y-78715922D01*
X105369000Y-78715922D01*
X105275448Y-78245604D01*
X105009034Y-77846888D01*
X104610318Y-77580474D01*
X104140000Y-77486922D01*
X103669682Y-77580474D01*
X103270966Y-77846888D01*
X103004552Y-78245604D01*
X102911000Y-78715922D01*
X102829000Y-78715922D01*
X102735448Y-78245604D01*
X102469034Y-77846888D01*
X102070318Y-77580474D01*
X101600000Y-77486922D01*
X101129682Y-77580474D01*
X100730966Y-77846888D01*
X100464552Y-78245604D01*
X100371000Y-78715922D01*
X100289000Y-78715922D01*
X100195448Y-78245604D01*
X99929034Y-77846888D01*
X99530318Y-77580474D01*
X99060000Y-77486922D01*
X98589682Y-77580474D01*
X98190966Y-77846888D01*
X97924552Y-78245604D01*
X97831000Y-78715922D01*
X90129000Y-78715922D01*
X90035448Y-78245604D01*
X89769034Y-77846888D01*
X89466500Y-77644741D01*
X89466500Y-77295259D01*
X89769034Y-77093112D01*
X90035448Y-76694396D01*
X90129000Y-76224078D01*
X90129000Y-76175922D01*
X90035448Y-75705604D01*
X89797841Y-75350000D01*
X97823575Y-75350000D01*
X97823575Y-77050000D01*
X97852990Y-77197878D01*
X97936756Y-77323244D01*
X98062122Y-77407010D01*
X98210000Y-77436425D01*
X99910000Y-77436425D01*
X100057878Y-77407010D01*
X100183244Y-77323244D01*
X100267010Y-77197878D01*
X100296425Y-77050000D01*
X100296425Y-76175922D01*
X100371000Y-76175922D01*
X100371000Y-76224078D01*
X100464552Y-76694396D01*
X100730966Y-77093112D01*
X101129682Y-77359526D01*
X101600000Y-77453078D01*
X102070318Y-77359526D01*
X102469034Y-77093112D01*
X102735448Y-76694396D01*
X102829000Y-76224078D01*
X102829000Y-76175922D01*
X102911000Y-76175922D01*
X102911000Y-76224078D01*
X103004552Y-76694396D01*
X103270966Y-77093112D01*
X103669682Y-77359526D01*
X104140000Y-77453078D01*
X104610318Y-77359526D01*
X105009034Y-77093112D01*
X105275448Y-76694396D01*
X105369000Y-76224078D01*
X105369000Y-76175922D01*
X105451000Y-76175922D01*
X105451000Y-76224078D01*
X105544552Y-76694396D01*
X105810966Y-77093112D01*
X106209682Y-77359526D01*
X106680000Y-77453078D01*
X107150318Y-77359526D01*
X107549034Y-77093112D01*
X107815448Y-76694396D01*
X107875154Y-76394233D01*
X108006445Y-76394233D01*
X108173151Y-76843855D01*
X108499230Y-77195456D01*
X108935040Y-77395508D01*
X109025767Y-77413554D01*
X109218000Y-77334248D01*
X109218000Y-76202000D01*
X109222000Y-76202000D01*
X109222000Y-77334248D01*
X109414233Y-77413554D01*
X109504960Y-77395508D01*
X109940770Y-77195456D01*
X110266849Y-76843855D01*
X110433555Y-76394233D01*
X110354249Y-76202000D01*
X109222000Y-76202000D01*
X109218000Y-76202000D01*
X108085751Y-76202000D01*
X108006445Y-76394233D01*
X107875154Y-76394233D01*
X107909000Y-76224078D01*
X107909000Y-76175922D01*
X107875155Y-76005767D01*
X108006445Y-76005767D01*
X108085751Y-76198000D01*
X109218000Y-76198000D01*
X109218000Y-75065752D01*
X109222000Y-75065752D01*
X109222000Y-76198000D01*
X110354249Y-76198000D01*
X110433555Y-76005767D01*
X110266849Y-75556145D01*
X109940770Y-75204544D01*
X109504960Y-75004492D01*
X109414233Y-74986446D01*
X109222000Y-75065752D01*
X109218000Y-75065752D01*
X109025767Y-74986446D01*
X108935040Y-75004492D01*
X108499230Y-75204544D01*
X108173151Y-75556145D01*
X108006445Y-76005767D01*
X107875155Y-76005767D01*
X107815448Y-75705604D01*
X107549034Y-75306888D01*
X107150318Y-75040474D01*
X106680000Y-74946922D01*
X106209682Y-75040474D01*
X105810966Y-75306888D01*
X105544552Y-75705604D01*
X105451000Y-76175922D01*
X105369000Y-76175922D01*
X105275448Y-75705604D01*
X105009034Y-75306888D01*
X104610318Y-75040474D01*
X104140000Y-74946922D01*
X103669682Y-75040474D01*
X103270966Y-75306888D01*
X103004552Y-75705604D01*
X102911000Y-76175922D01*
X102829000Y-76175922D01*
X102735448Y-75705604D01*
X102469034Y-75306888D01*
X102070318Y-75040474D01*
X101600000Y-74946922D01*
X101129682Y-75040474D01*
X100730966Y-75306888D01*
X100464552Y-75705604D01*
X100371000Y-76175922D01*
X100296425Y-76175922D01*
X100296425Y-75350000D01*
X100267010Y-75202122D01*
X100183244Y-75076756D01*
X100057878Y-74992990D01*
X99910000Y-74963575D01*
X98210000Y-74963575D01*
X98062122Y-74992990D01*
X97936756Y-75076756D01*
X97852990Y-75202122D01*
X97823575Y-75350000D01*
X89797841Y-75350000D01*
X89769034Y-75306888D01*
X89466500Y-75104741D01*
X89466500Y-72751652D01*
X90319132Y-71899020D01*
X90451273Y-71899135D01*
X90737692Y-71780790D01*
X90832146Y-71686500D01*
X97127799Y-71686500D01*
X97221156Y-71780019D01*
X97507367Y-71898865D01*
X97640829Y-71898981D01*
X97662423Y-71920575D01*
X97846209Y-72043377D01*
X98062999Y-72086499D01*
X98914001Y-72086499D01*
X99130791Y-72043377D01*
X99314577Y-71920575D01*
X99574153Y-71660999D01*
X107621928Y-71660999D01*
X111116871Y-75155942D01*
X110890966Y-75306888D01*
X110624552Y-75705604D01*
X110531000Y-76175922D01*
X110531000Y-76224078D01*
X110624552Y-76694396D01*
X110890966Y-77093112D01*
X111193500Y-77295259D01*
X111193500Y-77644741D01*
X110890966Y-77846888D01*
X110624552Y-78245604D01*
X110531000Y-78715922D01*
X110531000Y-78764078D01*
X110624552Y-79234396D01*
X110890966Y-79633112D01*
X111289682Y-79899526D01*
X111760000Y-79993078D01*
X112230318Y-79899526D01*
X112629034Y-79633112D01*
X112895448Y-79234396D01*
X112989000Y-78764078D01*
X112989000Y-78715922D01*
X112895448Y-78245604D01*
X112629034Y-77846888D01*
X112326500Y-77644741D01*
X112326500Y-77295259D01*
X112629034Y-77093112D01*
X112895448Y-76694396D01*
X112989000Y-76224078D01*
X112989000Y-76175922D01*
X112895448Y-75705604D01*
X112629034Y-75306888D01*
X112326500Y-75104741D01*
X112326500Y-74997919D01*
X112283378Y-74781129D01*
X112160576Y-74597343D01*
X108257156Y-70693923D01*
X108073370Y-70571121D01*
X107856580Y-70527999D01*
X99906001Y-70527999D01*
X99906001Y-69240511D01*
X99862879Y-69023721D01*
X99740077Y-68839935D01*
X98315020Y-67414878D01*
X98315135Y-67282737D01*
X98196790Y-66996318D01*
X97977844Y-66776991D01*
X97691633Y-66658145D01*
X97381727Y-66657875D01*
X97095308Y-66776220D01*
X96875981Y-66995166D01*
X96757135Y-67281377D01*
X96756865Y-67591283D01*
X96875210Y-67877702D01*
X97094156Y-68097029D01*
X97380367Y-68215875D01*
X97513829Y-68215991D01*
X98773001Y-69475163D01*
X98773001Y-69606278D01*
X98707633Y-69579135D01*
X98397727Y-69578865D01*
X98111308Y-69697210D01*
X97954245Y-69854000D01*
X90299910Y-69854000D01*
X90260784Y-69759308D01*
X90041838Y-69539981D01*
X89755627Y-69421135D01*
X89495244Y-69420908D01*
X93178729Y-65737423D01*
X93301531Y-65553638D01*
X93344653Y-65336847D01*
X93344653Y-64983048D01*
X93438172Y-64889691D01*
X93557018Y-64603480D01*
X93557288Y-64293574D01*
X93438943Y-64007155D01*
X93233881Y-63801736D01*
X93340797Y-63846132D01*
X93650703Y-63846402D01*
X93937122Y-63728057D01*
X94156449Y-63509111D01*
X94275295Y-63222900D01*
X94275437Y-63059233D01*
X98989446Y-63059233D01*
X99007492Y-63149960D01*
X99207544Y-63585770D01*
X99559145Y-63911849D01*
X100008767Y-64078555D01*
X100201000Y-63999249D01*
X100201000Y-62867000D01*
X100205000Y-62867000D01*
X100205000Y-63999249D01*
X100397233Y-64078555D01*
X100846855Y-63911849D01*
X101198456Y-63585770D01*
X101398508Y-63149960D01*
X101416554Y-63059233D01*
X101337248Y-62867000D01*
X100205000Y-62867000D01*
X100201000Y-62867000D01*
X99068752Y-62867000D01*
X98989446Y-63059233D01*
X94275437Y-63059233D01*
X94275565Y-62912994D01*
X94175480Y-62670767D01*
X98989446Y-62670767D01*
X99068752Y-62863000D01*
X100201000Y-62863000D01*
X100201000Y-61730751D01*
X100205000Y-61730751D01*
X100205000Y-62863000D01*
X101337248Y-62863000D01*
X101416554Y-62670767D01*
X101398508Y-62580040D01*
X101198456Y-62144230D01*
X100846855Y-61818151D01*
X100397233Y-61651445D01*
X100205000Y-61730751D01*
X100201000Y-61730751D01*
X100008767Y-61651445D01*
X99559145Y-61818151D01*
X99207544Y-62144230D01*
X99007492Y-62580040D01*
X98989446Y-62670767D01*
X94175480Y-62670767D01*
X94157220Y-62626575D01*
X93938274Y-62407248D01*
X93652063Y-62288402D01*
X93342157Y-62288132D01*
X93055738Y-62406477D01*
X92890695Y-62571234D01*
X92737873Y-62601632D01*
X92574363Y-62710885D01*
X91464618Y-63820630D01*
X91355365Y-63984139D01*
X91317000Y-64177012D01*
X91317000Y-65360437D01*
X90681261Y-65996175D01*
X90654228Y-65930750D01*
X90435282Y-65711423D01*
X90149071Y-65592577D01*
X89839165Y-65592307D01*
X89552746Y-65710652D01*
X89395683Y-65867442D01*
X89076558Y-65867442D01*
X88883685Y-65905807D01*
X88720176Y-66015060D01*
X79653618Y-75081618D01*
X79544365Y-75245127D01*
X79544365Y-75245128D01*
X79541108Y-75261501D01*
X79210318Y-75040474D01*
X78740000Y-74946922D01*
X78269682Y-75040474D01*
X77870966Y-75306888D01*
X77604552Y-75705604D01*
X77511000Y-76175922D01*
X77436425Y-76175922D01*
X77436425Y-75350000D01*
X77407010Y-75202122D01*
X77323244Y-75076756D01*
X77197878Y-74992990D01*
X77050000Y-74963575D01*
X75350000Y-74963575D01*
X75202122Y-74992990D01*
X75076756Y-75076756D01*
X74992990Y-75202122D01*
X74963575Y-75350000D01*
X74114000Y-75350000D01*
X74114000Y-59475000D01*
X98966575Y-59475000D01*
X98966575Y-61175000D01*
X98995990Y-61322878D01*
X99079756Y-61448244D01*
X99205122Y-61532010D01*
X99353000Y-61561425D01*
X101053000Y-61561425D01*
X101200878Y-61532010D01*
X101326244Y-61448244D01*
X101410010Y-61322878D01*
X101439425Y-61175000D01*
X101439425Y-59475000D01*
X101410010Y-59327122D01*
X101326244Y-59201756D01*
X101200878Y-59117990D01*
X101053000Y-59088575D01*
X99353000Y-59088575D01*
X99205122Y-59117990D01*
X99079756Y-59201756D01*
X98995990Y-59327122D01*
X98966575Y-59475000D01*
X74114000Y-59475000D01*
X74114000Y-56334000D01*
X113846000Y-56334000D01*
X113846000Y-82096000D01*
X113846000Y-82096000D01*
G37*
X113846000Y-82096000D02*
X74114000Y-82096000D01*
X74114000Y-78715922D01*
X74971000Y-78715922D01*
X74971000Y-78764078D01*
X75064552Y-79234396D01*
X75330966Y-79633112D01*
X75729682Y-79899526D01*
X76200000Y-79993078D01*
X76670318Y-79899526D01*
X77069034Y-79633112D01*
X77335448Y-79234396D01*
X77429000Y-78764078D01*
X77429000Y-78715922D01*
X77335448Y-78245604D01*
X77069034Y-77846888D01*
X76670318Y-77580474D01*
X76200000Y-77486922D01*
X75729682Y-77580474D01*
X75330966Y-77846888D01*
X75064552Y-78245604D01*
X74971000Y-78715922D01*
X74114000Y-78715922D01*
X74114000Y-75350000D01*
X74963575Y-75350000D01*
X74963575Y-77050000D01*
X74992990Y-77197878D01*
X75076756Y-77323244D01*
X75202122Y-77407010D01*
X75350000Y-77436425D01*
X77050000Y-77436425D01*
X77197878Y-77407010D01*
X77323244Y-77323244D01*
X77407010Y-77197878D01*
X77436425Y-77050000D01*
X77436425Y-76175922D01*
X77511000Y-76175922D01*
X77511000Y-76224078D01*
X77604552Y-76694396D01*
X77870966Y-77093112D01*
X78269682Y-77359526D01*
X78740000Y-77453078D01*
X79210318Y-77359526D01*
X79506000Y-77161957D01*
X79506000Y-77261236D01*
X79190670Y-77576566D01*
X78740000Y-77486922D01*
X78269682Y-77580474D01*
X77870966Y-77846888D01*
X77604552Y-78245604D01*
X77511000Y-78715922D01*
X77511000Y-78764078D01*
X77604552Y-79234396D01*
X77870966Y-79633112D01*
X78269682Y-79899526D01*
X78740000Y-79993078D01*
X79210318Y-79899526D01*
X79609034Y-79633112D01*
X79875448Y-79234396D01*
X79969000Y-78764078D01*
X79969000Y-78715922D01*
X80051000Y-78715922D01*
X80051000Y-78764078D01*
X80144552Y-79234396D01*
X80410966Y-79633112D01*
X80809682Y-79899526D01*
X81280000Y-79993078D01*
X81750318Y-79899526D01*
X82149034Y-79633112D01*
X82415448Y-79234396D01*
X82509000Y-78764078D01*
X82509000Y-78715922D01*
X82591000Y-78715922D01*
X82591000Y-78764078D01*
X82684552Y-79234396D01*
X82950966Y-79633112D01*
X83349682Y-79899526D01*
X83820000Y-79993078D01*
X84290318Y-79899526D01*
X84689034Y-79633112D01*
X84955448Y-79234396D01*
X85015154Y-78934233D01*
X85146445Y-78934233D01*
X85313151Y-79383855D01*
X85639230Y-79735456D01*
X86075040Y-79935508D01*
X86165767Y-79953554D01*
X86358000Y-79874248D01*
X86358000Y-78742000D01*
X86362000Y-78742000D01*
X86362000Y-79874248D01*
X86554233Y-79953554D01*
X86644960Y-79935508D01*
X87080770Y-79735456D01*
X87406849Y-79383855D01*
X87573555Y-78934233D01*
X87494249Y-78742000D01*
X86362000Y-78742000D01*
X86358000Y-78742000D01*
X85225751Y-78742000D01*
X85146445Y-78934233D01*
X85015154Y-78934233D01*
X85049000Y-78764078D01*
X85049000Y-78715922D01*
X85015155Y-78545767D01*
X85146445Y-78545767D01*
X85225751Y-78738000D01*
X86358000Y-78738000D01*
X86358000Y-77605752D01*
X86362000Y-77605752D01*
X86362000Y-78738000D01*
X87494249Y-78738000D01*
X87573555Y-78545767D01*
X87406849Y-78096145D01*
X87080770Y-77744544D01*
X86644960Y-77544492D01*
X86554233Y-77526446D01*
X86362000Y-77605752D01*
X86358000Y-77605752D01*
X86165767Y-77526446D01*
X86075040Y-77544492D01*
X85639230Y-77744544D01*
X85313151Y-78096145D01*
X85146445Y-78545767D01*
X85015155Y-78545767D01*
X84955448Y-78245604D01*
X84689034Y-77846888D01*
X84290318Y-77580474D01*
X83820000Y-77486922D01*
X83349682Y-77580474D01*
X82950966Y-77846888D01*
X82684552Y-78245604D01*
X82591000Y-78715922D01*
X82509000Y-78715922D01*
X82415448Y-78245604D01*
X82149034Y-77846888D01*
X81750318Y-77580474D01*
X81280000Y-77486922D01*
X80809682Y-77580474D01*
X80410966Y-77846888D01*
X80144552Y-78245604D01*
X80051000Y-78715922D01*
X79969000Y-78715922D01*
X79887346Y-78305418D01*
X80366382Y-77826382D01*
X80475635Y-77662873D01*
X80514000Y-77470000D01*
X80514000Y-77161957D01*
X80809682Y-77359526D01*
X81280000Y-77453078D01*
X81750318Y-77359526D01*
X82149034Y-77093112D01*
X82415448Y-76694396D01*
X82509000Y-76224078D01*
X82509000Y-76175922D01*
X82591000Y-76175922D01*
X82591000Y-76224078D01*
X82684552Y-76694396D01*
X82950966Y-77093112D01*
X83349682Y-77359526D01*
X83820000Y-77453078D01*
X84290318Y-77359526D01*
X84689034Y-77093112D01*
X84955448Y-76694396D01*
X85015154Y-76394233D01*
X85146445Y-76394233D01*
X85313151Y-76843855D01*
X85639230Y-77195456D01*
X86075040Y-77395508D01*
X86165767Y-77413554D01*
X86358000Y-77334248D01*
X86358000Y-76202000D01*
X86362000Y-76202000D01*
X86362000Y-77334248D01*
X86554233Y-77413554D01*
X86644960Y-77395508D01*
X87080770Y-77195456D01*
X87406849Y-76843855D01*
X87573555Y-76394233D01*
X87494249Y-76202000D01*
X86362000Y-76202000D01*
X86358000Y-76202000D01*
X85225751Y-76202000D01*
X85146445Y-76394233D01*
X85015154Y-76394233D01*
X85049000Y-76224078D01*
X85049000Y-76175922D01*
X85015155Y-76005767D01*
X85146445Y-76005767D01*
X85225751Y-76198000D01*
X86358000Y-76198000D01*
X86358000Y-75065752D01*
X86362000Y-75065752D01*
X86362000Y-76198000D01*
X87494249Y-76198000D01*
X87573555Y-76005767D01*
X87406849Y-75556145D01*
X87080770Y-75204544D01*
X86644960Y-75004492D01*
X86554233Y-74986446D01*
X86362000Y-75065752D01*
X86358000Y-75065752D01*
X86165767Y-74986446D01*
X86075040Y-75004492D01*
X85639230Y-75204544D01*
X85313151Y-75556145D01*
X85146445Y-76005767D01*
X85015155Y-76005767D01*
X84955448Y-75705604D01*
X84689034Y-75306888D01*
X84290318Y-75040474D01*
X83820000Y-74946922D01*
X83349682Y-75040474D01*
X82950966Y-75306888D01*
X82684552Y-75705604D01*
X82591000Y-76175922D01*
X82509000Y-76175922D01*
X82415448Y-75705604D01*
X82149034Y-75306888D01*
X81750318Y-75040474D01*
X81280000Y-74946922D01*
X81197415Y-74963349D01*
X88675138Y-67485626D01*
X88739210Y-67640692D01*
X88958156Y-67860019D01*
X89244367Y-67978865D01*
X89334904Y-67978944D01*
X88211914Y-69101934D01*
X88089112Y-69285720D01*
X88045990Y-69502510D01*
X88045990Y-70578002D01*
X88089112Y-70794792D01*
X88211914Y-70978578D01*
X88753912Y-71520576D01*
X88937698Y-71643378D01*
X88966701Y-71649147D01*
X88499424Y-72116424D01*
X88376622Y-72300210D01*
X88333500Y-72517000D01*
X88333500Y-75104741D01*
X88030966Y-75306888D01*
X87764552Y-75705604D01*
X87671000Y-76175922D01*
X87671000Y-76224078D01*
X87764552Y-76694396D01*
X88030966Y-77093112D01*
X88333500Y-77295259D01*
X88333500Y-77644741D01*
X88030966Y-77846888D01*
X87764552Y-78245604D01*
X87671000Y-78715922D01*
X87671000Y-78764078D01*
X87764552Y-79234396D01*
X88030966Y-79633112D01*
X88429682Y-79899526D01*
X88900000Y-79993078D01*
X89370318Y-79899526D01*
X89769034Y-79633112D01*
X90035448Y-79234396D01*
X90129000Y-78764078D01*
X90129000Y-78715922D01*
X97831000Y-78715922D01*
X97831000Y-78764078D01*
X97924552Y-79234396D01*
X98190966Y-79633112D01*
X98589682Y-79899526D01*
X99060000Y-79993078D01*
X99530318Y-79899526D01*
X99929034Y-79633112D01*
X100195448Y-79234396D01*
X100289000Y-78764078D01*
X100289000Y-78715922D01*
X100371000Y-78715922D01*
X100371000Y-78764078D01*
X100464552Y-79234396D01*
X100730966Y-79633112D01*
X101129682Y-79899526D01*
X101600000Y-79993078D01*
X102070318Y-79899526D01*
X102469034Y-79633112D01*
X102735448Y-79234396D01*
X102829000Y-78764078D01*
X102829000Y-78715922D01*
X102911000Y-78715922D01*
X102911000Y-78764078D01*
X103004552Y-79234396D01*
X103270966Y-79633112D01*
X103669682Y-79899526D01*
X104140000Y-79993078D01*
X104610318Y-79899526D01*
X105009034Y-79633112D01*
X105275448Y-79234396D01*
X105369000Y-78764078D01*
X105369000Y-78715922D01*
X105451000Y-78715922D01*
X105451000Y-78764078D01*
X105544552Y-79234396D01*
X105810966Y-79633112D01*
X106209682Y-79899526D01*
X106680000Y-79993078D01*
X107150318Y-79899526D01*
X107549034Y-79633112D01*
X107815448Y-79234396D01*
X107875154Y-78934233D01*
X108006445Y-78934233D01*
X108173151Y-79383855D01*
X108499230Y-79735456D01*
X108935040Y-79935508D01*
X109025767Y-79953554D01*
X109218000Y-79874248D01*
X109218000Y-78742000D01*
X109222000Y-78742000D01*
X109222000Y-79874248D01*
X109414233Y-79953554D01*
X109504960Y-79935508D01*
X109940770Y-79735456D01*
X110266849Y-79383855D01*
X110433555Y-78934233D01*
X110354249Y-78742000D01*
X109222000Y-78742000D01*
X109218000Y-78742000D01*
X108085751Y-78742000D01*
X108006445Y-78934233D01*
X107875154Y-78934233D01*
X107909000Y-78764078D01*
X107909000Y-78715922D01*
X107875155Y-78545767D01*
X108006445Y-78545767D01*
X108085751Y-78738000D01*
X109218000Y-78738000D01*
X109218000Y-77605752D01*
X109222000Y-77605752D01*
X109222000Y-78738000D01*
X110354249Y-78738000D01*
X110433555Y-78545767D01*
X110266849Y-78096145D01*
X109940770Y-77744544D01*
X109504960Y-77544492D01*
X109414233Y-77526446D01*
X109222000Y-77605752D01*
X109218000Y-77605752D01*
X109025767Y-77526446D01*
X108935040Y-77544492D01*
X108499230Y-77744544D01*
X108173151Y-78096145D01*
X108006445Y-78545767D01*
X107875155Y-78545767D01*
X107815448Y-78245604D01*
X107549034Y-77846888D01*
X107150318Y-77580474D01*
X106680000Y-77486922D01*
X106209682Y-77580474D01*
X105810966Y-77846888D01*
X105544552Y-78245604D01*
X105451000Y-78715922D01*
X105369000Y-78715922D01*
X105275448Y-78245604D01*
X105009034Y-77846888D01*
X104610318Y-77580474D01*
X104140000Y-77486922D01*
X103669682Y-77580474D01*
X103270966Y-77846888D01*
X103004552Y-78245604D01*
X102911000Y-78715922D01*
X102829000Y-78715922D01*
X102735448Y-78245604D01*
X102469034Y-77846888D01*
X102070318Y-77580474D01*
X101600000Y-77486922D01*
X101129682Y-77580474D01*
X100730966Y-77846888D01*
X100464552Y-78245604D01*
X100371000Y-78715922D01*
X100289000Y-78715922D01*
X100195448Y-78245604D01*
X99929034Y-77846888D01*
X99530318Y-77580474D01*
X99060000Y-77486922D01*
X98589682Y-77580474D01*
X98190966Y-77846888D01*
X97924552Y-78245604D01*
X97831000Y-78715922D01*
X90129000Y-78715922D01*
X90035448Y-78245604D01*
X89769034Y-77846888D01*
X89466500Y-77644741D01*
X89466500Y-77295259D01*
X89769034Y-77093112D01*
X90035448Y-76694396D01*
X90129000Y-76224078D01*
X90129000Y-76175922D01*
X90035448Y-75705604D01*
X89797841Y-75350000D01*
X97823575Y-75350000D01*
X97823575Y-77050000D01*
X97852990Y-77197878D01*
X97936756Y-77323244D01*
X98062122Y-77407010D01*
X98210000Y-77436425D01*
X99910000Y-77436425D01*
X100057878Y-77407010D01*
X100183244Y-77323244D01*
X100267010Y-77197878D01*
X100296425Y-77050000D01*
X100296425Y-76175922D01*
X100371000Y-76175922D01*
X100371000Y-76224078D01*
X100464552Y-76694396D01*
X100730966Y-77093112D01*
X101129682Y-77359526D01*
X101600000Y-77453078D01*
X102070318Y-77359526D01*
X102469034Y-77093112D01*
X102735448Y-76694396D01*
X102829000Y-76224078D01*
X102829000Y-76175922D01*
X102911000Y-76175922D01*
X102911000Y-76224078D01*
X103004552Y-76694396D01*
X103270966Y-77093112D01*
X103669682Y-77359526D01*
X104140000Y-77453078D01*
X104610318Y-77359526D01*
X105009034Y-77093112D01*
X105275448Y-76694396D01*
X105369000Y-76224078D01*
X105369000Y-76175922D01*
X105451000Y-76175922D01*
X105451000Y-76224078D01*
X105544552Y-76694396D01*
X105810966Y-77093112D01*
X106209682Y-77359526D01*
X106680000Y-77453078D01*
X107150318Y-77359526D01*
X107549034Y-77093112D01*
X107815448Y-76694396D01*
X107875154Y-76394233D01*
X108006445Y-76394233D01*
X108173151Y-76843855D01*
X108499230Y-77195456D01*
X108935040Y-77395508D01*
X109025767Y-77413554D01*
X109218000Y-77334248D01*
X109218000Y-76202000D01*
X109222000Y-76202000D01*
X109222000Y-77334248D01*
X109414233Y-77413554D01*
X109504960Y-77395508D01*
X109940770Y-77195456D01*
X110266849Y-76843855D01*
X110433555Y-76394233D01*
X110354249Y-76202000D01*
X109222000Y-76202000D01*
X109218000Y-76202000D01*
X108085751Y-76202000D01*
X108006445Y-76394233D01*
X107875154Y-76394233D01*
X107909000Y-76224078D01*
X107909000Y-76175922D01*
X107875155Y-76005767D01*
X108006445Y-76005767D01*
X108085751Y-76198000D01*
X109218000Y-76198000D01*
X109218000Y-75065752D01*
X109222000Y-75065752D01*
X109222000Y-76198000D01*
X110354249Y-76198000D01*
X110433555Y-76005767D01*
X110266849Y-75556145D01*
X109940770Y-75204544D01*
X109504960Y-75004492D01*
X109414233Y-74986446D01*
X109222000Y-75065752D01*
X109218000Y-75065752D01*
X109025767Y-74986446D01*
X108935040Y-75004492D01*
X108499230Y-75204544D01*
X108173151Y-75556145D01*
X108006445Y-76005767D01*
X107875155Y-76005767D01*
X107815448Y-75705604D01*
X107549034Y-75306888D01*
X107150318Y-75040474D01*
X106680000Y-74946922D01*
X106209682Y-75040474D01*
X105810966Y-75306888D01*
X105544552Y-75705604D01*
X105451000Y-76175922D01*
X105369000Y-76175922D01*
X105275448Y-75705604D01*
X105009034Y-75306888D01*
X104610318Y-75040474D01*
X104140000Y-74946922D01*
X103669682Y-75040474D01*
X103270966Y-75306888D01*
X103004552Y-75705604D01*
X102911000Y-76175922D01*
X102829000Y-76175922D01*
X102735448Y-75705604D01*
X102469034Y-75306888D01*
X102070318Y-75040474D01*
X101600000Y-74946922D01*
X101129682Y-75040474D01*
X100730966Y-75306888D01*
X100464552Y-75705604D01*
X100371000Y-76175922D01*
X100296425Y-76175922D01*
X100296425Y-75350000D01*
X100267010Y-75202122D01*
X100183244Y-75076756D01*
X100057878Y-74992990D01*
X99910000Y-74963575D01*
X98210000Y-74963575D01*
X98062122Y-74992990D01*
X97936756Y-75076756D01*
X97852990Y-75202122D01*
X97823575Y-75350000D01*
X89797841Y-75350000D01*
X89769034Y-75306888D01*
X89466500Y-75104741D01*
X89466500Y-72751652D01*
X90319132Y-71899020D01*
X90451273Y-71899135D01*
X90737692Y-71780790D01*
X90832146Y-71686500D01*
X97127799Y-71686500D01*
X97221156Y-71780019D01*
X97507367Y-71898865D01*
X97640829Y-71898981D01*
X97662423Y-71920575D01*
X97846209Y-72043377D01*
X98062999Y-72086499D01*
X98914001Y-72086499D01*
X99130791Y-72043377D01*
X99314577Y-71920575D01*
X99574153Y-71660999D01*
X107621928Y-71660999D01*
X111116871Y-75155942D01*
X110890966Y-75306888D01*
X110624552Y-75705604D01*
X110531000Y-76175922D01*
X110531000Y-76224078D01*
X110624552Y-76694396D01*
X110890966Y-77093112D01*
X111193500Y-77295259D01*
X111193500Y-77644741D01*
X110890966Y-77846888D01*
X110624552Y-78245604D01*
X110531000Y-78715922D01*
X110531000Y-78764078D01*
X110624552Y-79234396D01*
X110890966Y-79633112D01*
X111289682Y-79899526D01*
X111760000Y-79993078D01*
X112230318Y-79899526D01*
X112629034Y-79633112D01*
X112895448Y-79234396D01*
X112989000Y-78764078D01*
X112989000Y-78715922D01*
X112895448Y-78245604D01*
X112629034Y-77846888D01*
X112326500Y-77644741D01*
X112326500Y-77295259D01*
X112629034Y-77093112D01*
X112895448Y-76694396D01*
X112989000Y-76224078D01*
X112989000Y-76175922D01*
X112895448Y-75705604D01*
X112629034Y-75306888D01*
X112326500Y-75104741D01*
X112326500Y-74997919D01*
X112283378Y-74781129D01*
X112160576Y-74597343D01*
X108257156Y-70693923D01*
X108073370Y-70571121D01*
X107856580Y-70527999D01*
X99906001Y-70527999D01*
X99906001Y-69240511D01*
X99862879Y-69023721D01*
X99740077Y-68839935D01*
X98315020Y-67414878D01*
X98315135Y-67282737D01*
X98196790Y-66996318D01*
X97977844Y-66776991D01*
X97691633Y-66658145D01*
X97381727Y-66657875D01*
X97095308Y-66776220D01*
X96875981Y-66995166D01*
X96757135Y-67281377D01*
X96756865Y-67591283D01*
X96875210Y-67877702D01*
X97094156Y-68097029D01*
X97380367Y-68215875D01*
X97513829Y-68215991D01*
X98773001Y-69475163D01*
X98773001Y-69606278D01*
X98707633Y-69579135D01*
X98397727Y-69578865D01*
X98111308Y-69697210D01*
X97954245Y-69854000D01*
X90299910Y-69854000D01*
X90260784Y-69759308D01*
X90041838Y-69539981D01*
X89755627Y-69421135D01*
X89495244Y-69420908D01*
X93178729Y-65737423D01*
X93301531Y-65553638D01*
X93344653Y-65336847D01*
X93344653Y-64983048D01*
X93438172Y-64889691D01*
X93557018Y-64603480D01*
X93557288Y-64293574D01*
X93438943Y-64007155D01*
X93233881Y-63801736D01*
X93340797Y-63846132D01*
X93650703Y-63846402D01*
X93937122Y-63728057D01*
X94156449Y-63509111D01*
X94275295Y-63222900D01*
X94275437Y-63059233D01*
X98989446Y-63059233D01*
X99007492Y-63149960D01*
X99207544Y-63585770D01*
X99559145Y-63911849D01*
X100008767Y-64078555D01*
X100201000Y-63999249D01*
X100201000Y-62867000D01*
X100205000Y-62867000D01*
X100205000Y-63999249D01*
X100397233Y-64078555D01*
X100846855Y-63911849D01*
X101198456Y-63585770D01*
X101398508Y-63149960D01*
X101416554Y-63059233D01*
X101337248Y-62867000D01*
X100205000Y-62867000D01*
X100201000Y-62867000D01*
X99068752Y-62867000D01*
X98989446Y-63059233D01*
X94275437Y-63059233D01*
X94275565Y-62912994D01*
X94175480Y-62670767D01*
X98989446Y-62670767D01*
X99068752Y-62863000D01*
X100201000Y-62863000D01*
X100201000Y-61730751D01*
X100205000Y-61730751D01*
X100205000Y-62863000D01*
X101337248Y-62863000D01*
X101416554Y-62670767D01*
X101398508Y-62580040D01*
X101198456Y-62144230D01*
X100846855Y-61818151D01*
X100397233Y-61651445D01*
X100205000Y-61730751D01*
X100201000Y-61730751D01*
X100008767Y-61651445D01*
X99559145Y-61818151D01*
X99207544Y-62144230D01*
X99007492Y-62580040D01*
X98989446Y-62670767D01*
X94175480Y-62670767D01*
X94157220Y-62626575D01*
X93938274Y-62407248D01*
X93652063Y-62288402D01*
X93342157Y-62288132D01*
X93055738Y-62406477D01*
X92890695Y-62571234D01*
X92737873Y-62601632D01*
X92574363Y-62710885D01*
X91464618Y-63820630D01*
X91355365Y-63984139D01*
X91317000Y-64177012D01*
X91317000Y-65360437D01*
X90681261Y-65996175D01*
X90654228Y-65930750D01*
X90435282Y-65711423D01*
X90149071Y-65592577D01*
X89839165Y-65592307D01*
X89552746Y-65710652D01*
X89395683Y-65867442D01*
X89076558Y-65867442D01*
X88883685Y-65905807D01*
X88720176Y-66015060D01*
X79653618Y-75081618D01*
X79544365Y-75245127D01*
X79544365Y-75245128D01*
X79541108Y-75261501D01*
X79210318Y-75040474D01*
X78740000Y-74946922D01*
X78269682Y-75040474D01*
X77870966Y-75306888D01*
X77604552Y-75705604D01*
X77511000Y-76175922D01*
X77436425Y-76175922D01*
X77436425Y-75350000D01*
X77407010Y-75202122D01*
X77323244Y-75076756D01*
X77197878Y-74992990D01*
X77050000Y-74963575D01*
X75350000Y-74963575D01*
X75202122Y-74992990D01*
X75076756Y-75076756D01*
X74992990Y-75202122D01*
X74963575Y-75350000D01*
X74114000Y-75350000D01*
X74114000Y-59475000D01*
X98966575Y-59475000D01*
X98966575Y-61175000D01*
X98995990Y-61322878D01*
X99079756Y-61448244D01*
X99205122Y-61532010D01*
X99353000Y-61561425D01*
X101053000Y-61561425D01*
X101200878Y-61532010D01*
X101326244Y-61448244D01*
X101410010Y-61322878D01*
X101439425Y-61175000D01*
X101439425Y-59475000D01*
X101410010Y-59327122D01*
X101326244Y-59201756D01*
X101200878Y-59117990D01*
X101053000Y-59088575D01*
X99353000Y-59088575D01*
X99205122Y-59117990D01*
X99079756Y-59201756D01*
X98995990Y-59327122D01*
X98966575Y-59475000D01*
X74114000Y-59475000D01*
X74114000Y-56334000D01*
X113846000Y-56334000D01*
X113846000Y-82096000D01*
M02*
