M48
INCH,TZ
T1C0.016
T2C0.020
T3C0.022
T4C0.039
%
G90
G05
T1
X35197Y-26457
X35276Y-27638
X35430Y-26130
X35550Y-28000
X36350Y-24050
X36527Y-25373
X36810Y-24830
X38031Y-25748
X38400Y-26550
X38450Y-28000
X38800Y-27700
T4
X30000Y-30000
X30000Y-31000
X31000Y-30000
X31000Y-31000
X32000Y-30000
X32000Y-31000
X33000Y-30000
X33000Y-31000
X34000Y-30000
X34000Y-31000
X35000Y-30000
X35000Y-31000
X39000Y-30000
X39000Y-31000
X39450Y-23750
X39450Y-24750
X40000Y-30000
X40000Y-31000
X41000Y-30000
X41000Y-31000
X42000Y-30000
X42000Y-31000
X43000Y-30000
X43000Y-31000
X44000Y-30000
X44000Y-31000
T2
X29459Y-23819G85X29715Y-23819
G05
X29459Y-26575G85X29715Y-26575
G05
T3
X30650Y-24154G85X30650Y-24272
G05
X30650Y-26122G85X30650Y-26240
G05
T0
M30
