G04 #@! TF.GenerationSoftware,KiCad,Pcbnew,(2017-01-20 revision 550a1ea4d)-master*
G04 #@! TF.CreationDate,2017-01-26T21:32:20+07:00*
G04 #@! TF.ProjectId,ULPI_PMOD,554C50495F504D4F442E6B696361645F,rev?*
G04 #@! TF.FileFunction,Copper,L1,Top,Signal*
G04 #@! TF.FilePolarity,Positive*
%FSLAX46Y46*%
G04 Gerber Fmt 4.6, Leading zero omitted, Abs format (unit mm)*
G04 Created by KiCad (PCBNEW (2017-01-20 revision 550a1ea4d)-master) date Thu Jan 26 21:32:20 2017*
%MOMM*%
%LPD*%
G01*
G04 APERTURE LIST*
%ADD10C,0.100000*%
%ADD11O,1.550000X1.000000*%
%ADD12O,0.950000X1.250000*%
%ADD13R,1.350000X0.400000*%
%ADD14R,2.000000X4.500000*%
%ADD15R,0.500000X0.600000*%
%ADD16R,1.000000X1.250000*%
%ADD17R,1.250000X1.000000*%
%ADD18O,1.700000X1.700000*%
%ADD19R,1.700000X1.700000*%
%ADD20R,0.700000X1.300000*%
%ADD21R,1.300000X0.700000*%
%ADD22R,1.060000X0.650000*%
%ADD23R,1.725000X1.725000*%
%ADD24R,0.700000X0.250000*%
%ADD25R,0.250000X0.700000*%
%ADD26C,0.800000*%
%ADD27C,0.250000*%
%ADD28C,0.375000*%
G04 APERTURE END LIST*
D10*
D11*
X75150000Y-67500000D03*
X75150000Y-60500000D03*
D12*
X77850000Y-66500000D03*
X77850000Y-61500000D03*
D13*
X77850000Y-65300000D03*
X77850000Y-64650000D03*
X77850000Y-64000000D03*
X77850000Y-63350000D03*
X77850000Y-62700000D03*
D14*
X107442000Y-70417000D03*
X107442000Y-61917000D03*
D15*
X89535000Y-73025000D03*
X89535000Y-71925000D03*
D16*
X99203000Y-67564000D03*
X101203000Y-67564000D03*
D17*
X87884000Y-72882000D03*
X87884000Y-70882000D03*
X80800000Y-60800000D03*
X80800000Y-62800000D03*
D15*
X104140000Y-60791000D03*
X104140000Y-61891000D03*
X104140000Y-70443000D03*
X104140000Y-71543000D03*
D18*
X100203000Y-62865000D03*
D19*
X100203000Y-60325000D03*
D20*
X96647000Y-64008000D03*
X94747000Y-64008000D03*
D21*
X103759000Y-67117000D03*
X103759000Y-65217000D03*
D20*
X101150000Y-65532000D03*
X99250000Y-65532000D03*
D22*
X95715000Y-60137000D03*
X95715000Y-62037000D03*
X93515000Y-62037000D03*
X93515000Y-61087000D03*
X93515000Y-60137000D03*
D23*
X94842500Y-67871000D03*
X93117500Y-67871000D03*
X94842500Y-69596000D03*
X93117500Y-69596000D03*
D24*
X96380000Y-66983500D03*
X96380000Y-67483500D03*
X96380000Y-67983500D03*
X96380000Y-68483500D03*
X96380000Y-68983500D03*
X96380000Y-69483500D03*
X96380000Y-69983500D03*
X96380000Y-70483500D03*
D25*
X95730000Y-71133500D03*
X95230000Y-71133500D03*
X94730000Y-71133500D03*
X94230000Y-71133500D03*
X93730000Y-71133500D03*
X93230000Y-71133500D03*
X92730000Y-71133500D03*
X92230000Y-71133500D03*
D24*
X91580000Y-70483500D03*
X91580000Y-69983500D03*
X91580000Y-69483500D03*
X91580000Y-68983500D03*
X91580000Y-68483500D03*
X91580000Y-67983500D03*
X91580000Y-67483500D03*
X91580000Y-66983500D03*
D25*
X92230000Y-66333500D03*
X92730000Y-66333500D03*
X93230000Y-66333500D03*
X93730000Y-66333500D03*
X94230000Y-66333500D03*
X94730000Y-66333500D03*
X95230000Y-66333500D03*
X95730000Y-66333500D03*
D19*
X76200000Y-76200000D03*
D18*
X76200000Y-78740000D03*
X78740000Y-76200000D03*
X78740000Y-78740000D03*
X81280000Y-76200000D03*
X81280000Y-78740000D03*
X83820000Y-76200000D03*
X83820000Y-78740000D03*
X86360000Y-76200000D03*
X86360000Y-78740000D03*
X88900000Y-76200000D03*
X88900000Y-78740000D03*
X111760000Y-78740000D03*
X111760000Y-76200000D03*
X109220000Y-78740000D03*
X109220000Y-76200000D03*
X106680000Y-78740000D03*
X106680000Y-76200000D03*
X104140000Y-78740000D03*
X104140000Y-76200000D03*
X101600000Y-78740000D03*
X101600000Y-76200000D03*
X99060000Y-78740000D03*
D19*
X99060000Y-76200000D03*
D26*
X96600000Y-65400000D03*
X92329000Y-61087000D03*
X97663000Y-71120000D03*
X90297000Y-71120000D03*
X92778153Y-64447847D03*
X97536000Y-67437010D03*
X89599994Y-70200000D03*
X98552000Y-70358000D03*
X89993438Y-66371442D03*
X89400000Y-67200000D03*
X93496430Y-63067267D03*
D27*
X95730000Y-66333500D02*
X95730000Y-65670000D01*
X95730000Y-65670000D02*
X96000000Y-65400000D01*
X96000000Y-65400000D02*
X96600000Y-65400000D01*
X95730000Y-66333500D02*
X95730000Y-65885000D01*
X95730000Y-65885000D02*
X95631000Y-65786000D01*
X95631000Y-65786000D02*
X95378410Y-65786000D01*
X95230000Y-65934410D02*
X95230000Y-66333500D01*
X95378410Y-65786000D02*
X95230000Y-65934410D01*
X93515000Y-61087000D02*
X92329000Y-61087000D01*
X95230000Y-66333500D02*
X95230000Y-67483500D01*
X95230000Y-67483500D02*
X94842500Y-67871000D01*
X96380000Y-70483500D02*
X97026500Y-70483500D01*
X97026500Y-70483500D02*
X97663000Y-71120000D01*
X90696999Y-70720001D02*
X90297000Y-71120000D01*
X90933500Y-70483500D02*
X90696999Y-70720001D01*
X89535000Y-71875000D02*
X90290000Y-71120000D01*
X90290000Y-71120000D02*
X90297000Y-71120000D01*
X89535000Y-71925000D02*
X89535000Y-71875000D01*
X91580000Y-70483500D02*
X90933500Y-70483500D01*
X93230000Y-66333500D02*
X93230000Y-64899694D01*
X93230000Y-64899694D02*
X92778153Y-64447847D01*
X96380000Y-67983500D02*
X96989510Y-67983500D01*
X96989510Y-67983500D02*
X97536000Y-67437010D01*
X97489510Y-67483500D02*
X97536000Y-67437010D01*
X96380000Y-67483500D02*
X97489510Y-67483500D01*
X96380000Y-67483500D02*
X96980000Y-67483500D01*
X96380000Y-68483500D02*
X97632500Y-68483500D01*
X98552000Y-67564000D02*
X99203000Y-67564000D01*
X97632500Y-68483500D02*
X98552000Y-67564000D01*
X89816494Y-69983500D02*
X89599994Y-70200000D01*
X89199995Y-70599999D02*
X89599994Y-70200000D01*
X87884000Y-70882000D02*
X88917994Y-70882000D01*
X88917994Y-70882000D02*
X89199995Y-70599999D01*
X91580000Y-69983500D02*
X89816494Y-69983500D01*
X98552000Y-70358000D02*
X98177500Y-69983500D01*
X98177500Y-69983500D02*
X96380000Y-69983500D01*
D28*
X93515000Y-60137000D02*
X91863000Y-60137000D01*
X91863000Y-60137000D02*
X91400000Y-60600000D01*
X91400000Y-60600000D02*
X91400000Y-63400000D01*
X91400000Y-63400000D02*
X90988520Y-63811480D01*
X90988520Y-63811480D02*
X80800000Y-63811480D01*
X80800000Y-63811480D02*
X79411480Y-63811480D01*
X80800000Y-62800000D02*
X80800000Y-63675000D01*
X80800000Y-63675000D02*
X80800000Y-63811480D01*
X79200000Y-63000000D02*
X78900000Y-62700000D01*
X79411480Y-63811480D02*
X79200000Y-63600000D01*
X79200000Y-63600000D02*
X79200000Y-63000000D01*
X78900000Y-62700000D02*
X77850000Y-62700000D01*
D27*
X96647000Y-64008000D02*
X96647000Y-63108000D01*
X96647000Y-63108000D02*
X97017000Y-62738000D01*
X94173000Y-60137000D02*
X93515000Y-60137000D01*
X97017000Y-62738000D02*
X97028000Y-62738000D01*
X97028000Y-62738000D02*
X97028000Y-61468000D01*
X97028000Y-61468000D02*
X96647000Y-61087000D01*
X96647000Y-61087000D02*
X95123000Y-61087000D01*
X95123000Y-61087000D02*
X94173000Y-60137000D01*
X103759000Y-65217000D02*
X102677000Y-65217000D01*
X102677000Y-65217000D02*
X102362000Y-65532000D01*
X102362000Y-65532000D02*
X102362000Y-68453000D01*
X96980000Y-68983500D02*
X96380000Y-68983500D01*
X102362000Y-68453000D02*
X101831500Y-68983500D01*
X101831500Y-68983500D02*
X96980000Y-68983500D01*
X104140000Y-61891000D02*
X107416000Y-61891000D01*
X107416000Y-61891000D02*
X107442000Y-61917000D01*
X104140000Y-61891000D02*
X104140000Y-64135000D01*
X104140000Y-64135000D02*
X103759000Y-64516000D01*
X103759000Y-64516000D02*
X103759000Y-65217000D01*
X104293000Y-61917000D02*
X104267000Y-61891000D01*
X103759000Y-67117000D02*
X103759000Y-67818000D01*
X103759000Y-67818000D02*
X104140000Y-68199000D01*
X104140000Y-68199000D02*
X104140000Y-70485000D01*
X104140000Y-70485000D02*
X104140000Y-70443000D01*
X104140000Y-70443000D02*
X102828000Y-70443000D01*
X102828000Y-70443000D02*
X101868500Y-69483500D01*
X101868500Y-69483500D02*
X96980000Y-69483500D01*
X96980000Y-69483500D02*
X96380000Y-69483500D01*
X107442000Y-70417000D02*
X104166000Y-70417000D01*
X104166000Y-70417000D02*
X104140000Y-70443000D01*
D28*
X95715000Y-60137000D02*
X100015000Y-60137000D01*
X100015000Y-60137000D02*
X100203000Y-60325000D01*
D27*
X93730000Y-66333500D02*
X93730000Y-64266000D01*
X93730000Y-64266000D02*
X93186846Y-63722846D01*
X93186846Y-63722846D02*
X92430152Y-63722846D01*
X91829008Y-64323990D02*
X79476010Y-64323990D01*
X92430152Y-63722846D02*
X91829008Y-64323990D01*
X79476010Y-64323990D02*
X79150000Y-64650000D01*
X79150000Y-64650000D02*
X77850000Y-64650000D01*
X80389590Y-74422000D02*
X86328090Y-68483500D01*
X86328090Y-68483500D02*
X91580000Y-68483500D01*
X76200000Y-76200000D02*
X76200000Y-75100000D01*
X76200000Y-75100000D02*
X76878000Y-74422000D01*
X76878000Y-74422000D02*
X80389590Y-74422000D01*
X81280000Y-74997919D02*
X81280000Y-76200000D01*
X86802928Y-69474991D02*
X81280000Y-74997919D01*
X90980000Y-69483500D02*
X90971491Y-69474991D01*
X90971491Y-69474991D02*
X86802928Y-69474991D01*
X91580000Y-69483500D02*
X90980000Y-69483500D01*
X90605496Y-66983500D02*
X90393437Y-66771441D01*
X90393437Y-66771441D02*
X89993438Y-66371442D01*
X91580000Y-66983500D02*
X90605496Y-66983500D01*
X76200000Y-78740000D02*
X75438000Y-78740000D01*
X75438000Y-78740000D02*
X74676000Y-77978000D01*
X74676000Y-77978000D02*
X74676000Y-74676000D01*
X80261180Y-73914000D02*
X86191680Y-67983500D01*
X74676000Y-74676000D02*
X75438000Y-73914000D01*
X75438000Y-73914000D02*
X80261180Y-73914000D01*
X86191680Y-67983500D02*
X91580000Y-67983500D01*
X91580000Y-68983500D02*
X86464500Y-68983500D01*
X80010000Y-77470000D02*
X80430001Y-77890001D01*
X86464500Y-68983500D02*
X80010000Y-75438000D01*
X80010000Y-75438000D02*
X80010000Y-77470000D01*
X80430001Y-77890001D02*
X81280000Y-78740000D01*
X107529999Y-77890001D02*
X106680000Y-78740000D01*
X104567970Y-73071970D02*
X106172000Y-74676000D01*
X102139990Y-71939990D02*
X103271970Y-73071970D01*
X95730000Y-71733500D02*
X95936490Y-71939990D01*
X106172000Y-74676000D02*
X107188000Y-74676000D01*
X107950000Y-75438000D02*
X107950000Y-77470000D01*
X95730000Y-71133500D02*
X95730000Y-71733500D01*
X95936490Y-71939990D02*
X102139990Y-71939990D01*
X103271970Y-73071970D02*
X104567970Y-73071970D01*
X107188000Y-74676000D02*
X107950000Y-75438000D01*
X107950000Y-77470000D02*
X107529999Y-77890001D01*
X95230000Y-71133500D02*
X95230000Y-72116000D01*
X103085570Y-73521981D02*
X104255981Y-73521981D01*
X95230000Y-72116000D02*
X95504000Y-72390000D01*
X95504000Y-72390000D02*
X101953591Y-72390001D01*
X101953591Y-72390001D02*
X103085570Y-73521981D01*
X104255981Y-73521981D02*
X106680000Y-75946000D01*
X106680000Y-75946000D02*
X106680000Y-76200000D01*
X104989999Y-77890001D02*
X104140000Y-78740000D01*
X95250000Y-72898000D02*
X101825180Y-72898000D01*
X105410000Y-77470000D02*
X104989999Y-77890001D01*
X105410000Y-75438000D02*
X105410000Y-77470000D01*
X103943992Y-73971992D02*
X105410000Y-75438000D01*
X101825180Y-72898000D02*
X102899170Y-73971992D01*
X102899170Y-73971992D02*
X103943992Y-73971992D01*
X94730000Y-71133500D02*
X94730000Y-72378000D01*
X94730000Y-72378000D02*
X95250000Y-72898000D01*
X94230000Y-71133500D02*
X94230000Y-72640000D01*
X94230000Y-72640000D02*
X94996000Y-73406000D01*
X94996000Y-73406000D02*
X101600000Y-73406000D01*
X101600000Y-73406000D02*
X102616000Y-74422000D01*
X102616000Y-74422000D02*
X103564081Y-74422000D01*
X103564081Y-74422000D02*
X104140000Y-74997919D01*
X104140000Y-74997919D02*
X104140000Y-76200000D01*
X93730000Y-71133500D02*
X93730000Y-72902000D01*
X102449999Y-77890001D02*
X101600000Y-78740000D01*
X93730000Y-72902000D02*
X94742000Y-73914000D01*
X102870000Y-75438000D02*
X102870000Y-77470000D01*
X94742000Y-73914000D02*
X101346000Y-73914000D01*
X101346000Y-73914000D02*
X102870000Y-75438000D01*
X102870000Y-77470000D02*
X102449999Y-77890001D01*
X93230000Y-71133500D02*
X93230000Y-73164000D01*
X93230000Y-73164000D02*
X94488000Y-74422000D01*
X94488000Y-74422000D02*
X101024081Y-74422000D01*
X101024081Y-74422000D02*
X101600000Y-74997919D01*
X101600000Y-74997919D02*
X101600000Y-76200000D01*
X92730000Y-71133500D02*
X92730000Y-73426000D01*
X92730000Y-73426000D02*
X94234000Y-74930000D01*
X94234000Y-74930000D02*
X100076000Y-74930000D01*
X100076000Y-74930000D02*
X100330000Y-75184000D01*
X100330000Y-75184000D02*
X100330000Y-77470000D01*
X100330000Y-77470000D02*
X99060000Y-78740000D01*
X99060000Y-76200000D02*
X97960000Y-76200000D01*
X97198000Y-75438000D02*
X93980000Y-75438000D01*
X97960000Y-76200000D02*
X97198000Y-75438000D01*
X93980000Y-75438000D02*
X92230000Y-73688000D01*
X92230000Y-73688000D02*
X92230000Y-71133500D01*
X94230000Y-66333500D02*
X94230000Y-65425000D01*
X94230000Y-65425000D02*
X94747000Y-64908000D01*
X94747000Y-64908000D02*
X94747000Y-64008000D01*
X96380000Y-66983500D02*
X96846500Y-66983500D01*
X98653000Y-65532000D02*
X99253000Y-65532000D01*
X96846500Y-66983500D02*
X98298000Y-65532000D01*
X98298000Y-65532000D02*
X98653000Y-65532000D01*
X94730000Y-66333500D02*
X94730000Y-65798000D01*
X94730000Y-65798000D02*
X95715000Y-64813000D01*
X95715000Y-64813000D02*
X95715000Y-62612000D01*
X95715000Y-62612000D02*
X95715000Y-62037000D01*
X89683500Y-67483500D02*
X89400000Y-67200000D01*
X91580000Y-67483500D02*
X89683500Y-67483500D01*
X93496430Y-63067267D02*
X93496430Y-62055570D01*
X93496430Y-62055570D02*
X93515000Y-62037000D01*
X92730000Y-66333500D02*
X92730000Y-65530000D01*
X92730000Y-65530000D02*
X91974000Y-64774000D01*
X91974000Y-64774000D02*
X82827448Y-64774000D01*
X77039998Y-64000000D02*
X77850000Y-64000000D01*
X82827448Y-64774000D02*
X79906448Y-67695000D01*
X77695000Y-67695000D02*
X76500000Y-66500000D01*
X79906448Y-67695000D02*
X77695000Y-67695000D01*
X76500000Y-66500000D02*
X76500000Y-64539998D01*
X76500000Y-64539998D02*
X77039998Y-64000000D01*
X92230000Y-66333500D02*
X92230000Y-65830000D01*
X92230000Y-65830000D02*
X91674000Y-65274000D01*
X76000010Y-66750010D02*
X76000010Y-64199990D01*
X91674000Y-65274000D02*
X83034552Y-65274000D01*
X76850000Y-63350000D02*
X77310000Y-63350000D01*
X83034552Y-65274000D02*
X80113552Y-68195000D01*
X80113552Y-68195000D02*
X77445000Y-68195000D01*
X77445000Y-68195000D02*
X76000010Y-66750010D01*
X76000010Y-64199990D02*
X76850000Y-63350000D01*
X77310000Y-63350000D02*
X77850000Y-63350000D01*
G36*
X113846000Y-82096000D02*
X74114000Y-82096000D01*
X74114000Y-74676000D01*
X74172000Y-74676000D01*
X74172000Y-77978000D01*
X74210365Y-78170873D01*
X74319618Y-78334382D01*
X75026045Y-79040809D01*
X75064552Y-79234396D01*
X75330966Y-79633112D01*
X75729682Y-79899526D01*
X76200000Y-79993078D01*
X76670318Y-79899526D01*
X77069034Y-79633112D01*
X77335448Y-79234396D01*
X77429000Y-78764078D01*
X77429000Y-78715922D01*
X77511000Y-78715922D01*
X77511000Y-78764078D01*
X77604552Y-79234396D01*
X77870966Y-79633112D01*
X78269682Y-79899526D01*
X78740000Y-79993078D01*
X79210318Y-79899526D01*
X79609034Y-79633112D01*
X79875448Y-79234396D01*
X79969000Y-78764078D01*
X79969000Y-78715922D01*
X79875448Y-78245604D01*
X79609034Y-77846888D01*
X79210318Y-77580474D01*
X78740000Y-77486922D01*
X78269682Y-77580474D01*
X77870966Y-77846888D01*
X77604552Y-78245604D01*
X77511000Y-78715922D01*
X77429000Y-78715922D01*
X77335448Y-78245604D01*
X77069034Y-77846888D01*
X76670318Y-77580474D01*
X76200000Y-77486922D01*
X75729682Y-77580474D01*
X75330966Y-77846888D01*
X75301600Y-77890836D01*
X75180000Y-77769236D01*
X75180000Y-77392229D01*
X75202122Y-77407010D01*
X75350000Y-77436425D01*
X77050000Y-77436425D01*
X77197878Y-77407010D01*
X77323244Y-77323244D01*
X77407010Y-77197878D01*
X77436425Y-77050000D01*
X77436425Y-75350000D01*
X77407010Y-75202122D01*
X77323244Y-75076756D01*
X77197878Y-74992990D01*
X77050000Y-74963575D01*
X77049189Y-74963575D01*
X77086764Y-74926000D01*
X79809236Y-74926000D01*
X79653618Y-75081618D01*
X79544365Y-75245127D01*
X79544365Y-75245128D01*
X79541108Y-75261501D01*
X79210318Y-75040474D01*
X78740000Y-74946922D01*
X78269682Y-75040474D01*
X77870966Y-75306888D01*
X77604552Y-75705604D01*
X77511000Y-76175922D01*
X77511000Y-76224078D01*
X77604552Y-76694396D01*
X77870966Y-77093112D01*
X78269682Y-77359526D01*
X78740000Y-77453078D01*
X79210318Y-77359526D01*
X79506000Y-77161957D01*
X79506000Y-77470000D01*
X79544365Y-77662873D01*
X79653618Y-77826382D01*
X80132654Y-78305418D01*
X80051000Y-78715922D01*
X80051000Y-78764078D01*
X80144552Y-79234396D01*
X80410966Y-79633112D01*
X80809682Y-79899526D01*
X81280000Y-79993078D01*
X81750318Y-79899526D01*
X82149034Y-79633112D01*
X82415448Y-79234396D01*
X82509000Y-78764078D01*
X82509000Y-78715922D01*
X82591000Y-78715922D01*
X82591000Y-78764078D01*
X82684552Y-79234396D01*
X82950966Y-79633112D01*
X83349682Y-79899526D01*
X83820000Y-79993078D01*
X84290318Y-79899526D01*
X84689034Y-79633112D01*
X84955448Y-79234396D01*
X85015154Y-78934233D01*
X85146445Y-78934233D01*
X85313151Y-79383855D01*
X85639230Y-79735456D01*
X86075040Y-79935508D01*
X86165767Y-79953554D01*
X86358000Y-79874248D01*
X86358000Y-78742000D01*
X86362000Y-78742000D01*
X86362000Y-79874248D01*
X86554233Y-79953554D01*
X86644960Y-79935508D01*
X87080770Y-79735456D01*
X87406849Y-79383855D01*
X87573555Y-78934233D01*
X87494249Y-78742000D01*
X86362000Y-78742000D01*
X86358000Y-78742000D01*
X85225751Y-78742000D01*
X85146445Y-78934233D01*
X85015154Y-78934233D01*
X85049000Y-78764078D01*
X85049000Y-78715922D01*
X85015155Y-78545767D01*
X85146445Y-78545767D01*
X85225751Y-78738000D01*
X86358000Y-78738000D01*
X86358000Y-77605752D01*
X86362000Y-77605752D01*
X86362000Y-78738000D01*
X87494249Y-78738000D01*
X87503357Y-78715922D01*
X87671000Y-78715922D01*
X87671000Y-78764078D01*
X87764552Y-79234396D01*
X88030966Y-79633112D01*
X88429682Y-79899526D01*
X88900000Y-79993078D01*
X89370318Y-79899526D01*
X89769034Y-79633112D01*
X90035448Y-79234396D01*
X90129000Y-78764078D01*
X90129000Y-78715922D01*
X90035448Y-78245604D01*
X89769034Y-77846888D01*
X89370318Y-77580474D01*
X88900000Y-77486922D01*
X88429682Y-77580474D01*
X88030966Y-77846888D01*
X87764552Y-78245604D01*
X87671000Y-78715922D01*
X87503357Y-78715922D01*
X87573555Y-78545767D01*
X87406849Y-78096145D01*
X87080770Y-77744544D01*
X86644960Y-77544492D01*
X86554233Y-77526446D01*
X86362000Y-77605752D01*
X86358000Y-77605752D01*
X86165767Y-77526446D01*
X86075040Y-77544492D01*
X85639230Y-77744544D01*
X85313151Y-78096145D01*
X85146445Y-78545767D01*
X85015155Y-78545767D01*
X84955448Y-78245604D01*
X84689034Y-77846888D01*
X84290318Y-77580474D01*
X83820000Y-77486922D01*
X83349682Y-77580474D01*
X82950966Y-77846888D01*
X82684552Y-78245604D01*
X82591000Y-78715922D01*
X82509000Y-78715922D01*
X82415448Y-78245604D01*
X82149034Y-77846888D01*
X81750318Y-77580474D01*
X81280000Y-77486922D01*
X80829330Y-77576566D01*
X80514000Y-77261236D01*
X80514000Y-77161957D01*
X80809682Y-77359526D01*
X81280000Y-77453078D01*
X81750318Y-77359526D01*
X82149034Y-77093112D01*
X82415448Y-76694396D01*
X82509000Y-76224078D01*
X82509000Y-76175922D01*
X82591000Y-76175922D01*
X82591000Y-76224078D01*
X82684552Y-76694396D01*
X82950966Y-77093112D01*
X83349682Y-77359526D01*
X83820000Y-77453078D01*
X84290318Y-77359526D01*
X84689034Y-77093112D01*
X84955448Y-76694396D01*
X85015154Y-76394233D01*
X85146445Y-76394233D01*
X85313151Y-76843855D01*
X85639230Y-77195456D01*
X86075040Y-77395508D01*
X86165767Y-77413554D01*
X86358000Y-77334248D01*
X86358000Y-76202000D01*
X86362000Y-76202000D01*
X86362000Y-77334248D01*
X86554233Y-77413554D01*
X86644960Y-77395508D01*
X87080770Y-77195456D01*
X87406849Y-76843855D01*
X87573555Y-76394233D01*
X87494249Y-76202000D01*
X86362000Y-76202000D01*
X86358000Y-76202000D01*
X85225751Y-76202000D01*
X85146445Y-76394233D01*
X85015154Y-76394233D01*
X85049000Y-76224078D01*
X85049000Y-76175922D01*
X85015155Y-76005767D01*
X85146445Y-76005767D01*
X85225751Y-76198000D01*
X86358000Y-76198000D01*
X86358000Y-75065752D01*
X86362000Y-75065752D01*
X86362000Y-76198000D01*
X87494249Y-76198000D01*
X87503357Y-76175922D01*
X87671000Y-76175922D01*
X87671000Y-76224078D01*
X87764552Y-76694396D01*
X88030966Y-77093112D01*
X88429682Y-77359526D01*
X88900000Y-77453078D01*
X89370318Y-77359526D01*
X89769034Y-77093112D01*
X90035448Y-76694396D01*
X90129000Y-76224078D01*
X90129000Y-76175922D01*
X90035448Y-75705604D01*
X89769034Y-75306888D01*
X89370318Y-75040474D01*
X88900000Y-74946922D01*
X88429682Y-75040474D01*
X88030966Y-75306888D01*
X87764552Y-75705604D01*
X87671000Y-76175922D01*
X87503357Y-76175922D01*
X87573555Y-76005767D01*
X87406849Y-75556145D01*
X87080770Y-75204544D01*
X86644960Y-75004492D01*
X86554233Y-74986446D01*
X86362000Y-75065752D01*
X86358000Y-75065752D01*
X86165767Y-74986446D01*
X86075040Y-75004492D01*
X85639230Y-75204544D01*
X85313151Y-75556145D01*
X85146445Y-76005767D01*
X85015155Y-76005767D01*
X84955448Y-75705604D01*
X84689034Y-75306888D01*
X84290318Y-75040474D01*
X83820000Y-74946922D01*
X83349682Y-75040474D01*
X82950966Y-75306888D01*
X82684552Y-75705604D01*
X82591000Y-76175922D01*
X82509000Y-76175922D01*
X82415448Y-75705604D01*
X82149034Y-75306888D01*
X81870144Y-75120539D01*
X84011933Y-72978750D01*
X86880000Y-72978750D01*
X86880000Y-73457388D01*
X86937699Y-73596686D01*
X87044314Y-73703301D01*
X87183612Y-73761000D01*
X87787250Y-73761000D01*
X87882000Y-73666250D01*
X87882000Y-72884000D01*
X87886000Y-72884000D01*
X87886000Y-73666250D01*
X87980750Y-73761000D01*
X88584388Y-73761000D01*
X88723686Y-73703301D01*
X88830301Y-73596686D01*
X88888000Y-73457388D01*
X88888000Y-73121750D01*
X88906000Y-73121750D01*
X88906000Y-73400388D01*
X88963699Y-73539686D01*
X89070314Y-73646301D01*
X89209612Y-73704000D01*
X89438250Y-73704000D01*
X89533000Y-73609250D01*
X89533000Y-73027000D01*
X89537000Y-73027000D01*
X89537000Y-73609250D01*
X89631750Y-73704000D01*
X89860388Y-73704000D01*
X89999686Y-73646301D01*
X90106301Y-73539686D01*
X90164000Y-73400388D01*
X90164000Y-73121750D01*
X90069250Y-73027000D01*
X89537000Y-73027000D01*
X89533000Y-73027000D01*
X89000750Y-73027000D01*
X88906000Y-73121750D01*
X88888000Y-73121750D01*
X88888000Y-72978750D01*
X88793250Y-72884000D01*
X87886000Y-72884000D01*
X87882000Y-72884000D01*
X86974750Y-72884000D01*
X86880000Y-72978750D01*
X84011933Y-72978750D01*
X84684071Y-72306612D01*
X86880000Y-72306612D01*
X86880000Y-72785250D01*
X86974750Y-72880000D01*
X87882000Y-72880000D01*
X87882000Y-72097750D01*
X87886000Y-72097750D01*
X87886000Y-72880000D01*
X88793250Y-72880000D01*
X88888000Y-72785250D01*
X88888000Y-72306612D01*
X88830301Y-72167314D01*
X88723686Y-72060699D01*
X88584388Y-72003000D01*
X87980750Y-72003000D01*
X87886000Y-72097750D01*
X87882000Y-72097750D01*
X87787250Y-72003000D01*
X87183612Y-72003000D01*
X87044314Y-72060699D01*
X86937699Y-72167314D01*
X86880000Y-72306612D01*
X84684071Y-72306612D01*
X87011692Y-69978991D01*
X88848276Y-69978991D01*
X88821129Y-70044367D01*
X88821022Y-70166792D01*
X88782244Y-70108756D01*
X88656878Y-70024990D01*
X88509000Y-69995575D01*
X87259000Y-69995575D01*
X87111122Y-70024990D01*
X86985756Y-70108756D01*
X86901990Y-70234122D01*
X86872575Y-70382000D01*
X86872575Y-71382000D01*
X86901990Y-71529878D01*
X86985756Y-71655244D01*
X87111122Y-71739010D01*
X87259000Y-71768425D01*
X88509000Y-71768425D01*
X88656878Y-71739010D01*
X88782244Y-71655244D01*
X88866010Y-71529878D01*
X88894629Y-71386000D01*
X88917994Y-71386000D01*
X88999740Y-71369740D01*
X88927990Y-71477122D01*
X88898575Y-71625000D01*
X88898575Y-72225000D01*
X88927990Y-72372878D01*
X88997342Y-72476671D01*
X88963699Y-72510314D01*
X88906000Y-72649612D01*
X88906000Y-72928250D01*
X89000750Y-73023000D01*
X89533000Y-73023000D01*
X89533000Y-73003000D01*
X89537000Y-73003000D01*
X89537000Y-73023000D01*
X90069250Y-73023000D01*
X90164000Y-72928250D01*
X90164000Y-72649612D01*
X90106301Y-72510314D01*
X90072658Y-72476671D01*
X90142010Y-72372878D01*
X90171425Y-72225000D01*
X90171425Y-71951339D01*
X90223827Y-71898937D01*
X90451273Y-71899135D01*
X90737692Y-71780790D01*
X90957019Y-71561844D01*
X91075865Y-71275633D01*
X91076058Y-71053706D01*
X91142264Y-70987500D01*
X91192672Y-70987500D01*
X91230000Y-70994925D01*
X91718575Y-70994925D01*
X91718575Y-71483500D01*
X91726000Y-71520828D01*
X91726000Y-73688000D01*
X91764365Y-73880873D01*
X91873618Y-74044382D01*
X93623618Y-75794382D01*
X93787128Y-75903635D01*
X93980000Y-75942000D01*
X96989236Y-75942000D01*
X97603618Y-76556382D01*
X97767128Y-76665635D01*
X97823575Y-76676863D01*
X97823575Y-77050000D01*
X97852990Y-77197878D01*
X97936756Y-77323244D01*
X98062122Y-77407010D01*
X98210000Y-77436425D01*
X99650811Y-77436425D01*
X99510670Y-77576566D01*
X99060000Y-77486922D01*
X98589682Y-77580474D01*
X98190966Y-77846888D01*
X97924552Y-78245604D01*
X97831000Y-78715922D01*
X97831000Y-78764078D01*
X97924552Y-79234396D01*
X98190966Y-79633112D01*
X98589682Y-79899526D01*
X99060000Y-79993078D01*
X99530318Y-79899526D01*
X99929034Y-79633112D01*
X100195448Y-79234396D01*
X100289000Y-78764078D01*
X100289000Y-78715922D01*
X100207346Y-78305418D01*
X100686382Y-77826382D01*
X100795635Y-77662873D01*
X100834000Y-77470000D01*
X100834000Y-77161957D01*
X101129682Y-77359526D01*
X101600000Y-77453078D01*
X102070318Y-77359526D01*
X102366000Y-77161957D01*
X102366000Y-77261236D01*
X102050670Y-77576566D01*
X101600000Y-77486922D01*
X101129682Y-77580474D01*
X100730966Y-77846888D01*
X100464552Y-78245604D01*
X100371000Y-78715922D01*
X100371000Y-78764078D01*
X100464552Y-79234396D01*
X100730966Y-79633112D01*
X101129682Y-79899526D01*
X101600000Y-79993078D01*
X102070318Y-79899526D01*
X102469034Y-79633112D01*
X102735448Y-79234396D01*
X102829000Y-78764078D01*
X102829000Y-78715922D01*
X102747346Y-78305418D01*
X103226382Y-77826382D01*
X103335635Y-77662873D01*
X103374000Y-77470000D01*
X103374000Y-77161957D01*
X103669682Y-77359526D01*
X104140000Y-77453078D01*
X104610318Y-77359526D01*
X104906000Y-77161957D01*
X104906000Y-77261236D01*
X104590670Y-77576566D01*
X104140000Y-77486922D01*
X103669682Y-77580474D01*
X103270966Y-77846888D01*
X103004552Y-78245604D01*
X102911000Y-78715922D01*
X102911000Y-78764078D01*
X103004552Y-79234396D01*
X103270966Y-79633112D01*
X103669682Y-79899526D01*
X104140000Y-79993078D01*
X104610318Y-79899526D01*
X105009034Y-79633112D01*
X105275448Y-79234396D01*
X105369000Y-78764078D01*
X105369000Y-78715922D01*
X105287346Y-78305418D01*
X105766382Y-77826382D01*
X105875635Y-77662873D01*
X105914000Y-77470000D01*
X105914000Y-77161957D01*
X106209682Y-77359526D01*
X106680000Y-77453078D01*
X107150318Y-77359526D01*
X107446000Y-77161957D01*
X107446000Y-77261236D01*
X107130670Y-77576566D01*
X106680000Y-77486922D01*
X106209682Y-77580474D01*
X105810966Y-77846888D01*
X105544552Y-78245604D01*
X105451000Y-78715922D01*
X105451000Y-78764078D01*
X105544552Y-79234396D01*
X105810966Y-79633112D01*
X106209682Y-79899526D01*
X106680000Y-79993078D01*
X107150318Y-79899526D01*
X107549034Y-79633112D01*
X107815448Y-79234396D01*
X107875154Y-78934233D01*
X108006445Y-78934233D01*
X108173151Y-79383855D01*
X108499230Y-79735456D01*
X108935040Y-79935508D01*
X109025767Y-79953554D01*
X109218000Y-79874248D01*
X109218000Y-78742000D01*
X109222000Y-78742000D01*
X109222000Y-79874248D01*
X109414233Y-79953554D01*
X109504960Y-79935508D01*
X109940770Y-79735456D01*
X110266849Y-79383855D01*
X110433555Y-78934233D01*
X110354249Y-78742000D01*
X109222000Y-78742000D01*
X109218000Y-78742000D01*
X108085751Y-78742000D01*
X108006445Y-78934233D01*
X107875154Y-78934233D01*
X107909000Y-78764078D01*
X107909000Y-78715922D01*
X107875155Y-78545767D01*
X108006445Y-78545767D01*
X108085751Y-78738000D01*
X109218000Y-78738000D01*
X109218000Y-77605752D01*
X109222000Y-77605752D01*
X109222000Y-78738000D01*
X110354249Y-78738000D01*
X110363357Y-78715922D01*
X110531000Y-78715922D01*
X110531000Y-78764078D01*
X110624552Y-79234396D01*
X110890966Y-79633112D01*
X111289682Y-79899526D01*
X111760000Y-79993078D01*
X112230318Y-79899526D01*
X112629034Y-79633112D01*
X112895448Y-79234396D01*
X112989000Y-78764078D01*
X112989000Y-78715922D01*
X112895448Y-78245604D01*
X112629034Y-77846888D01*
X112230318Y-77580474D01*
X111760000Y-77486922D01*
X111289682Y-77580474D01*
X110890966Y-77846888D01*
X110624552Y-78245604D01*
X110531000Y-78715922D01*
X110363357Y-78715922D01*
X110433555Y-78545767D01*
X110266849Y-78096145D01*
X109940770Y-77744544D01*
X109504960Y-77544492D01*
X109414233Y-77526446D01*
X109222000Y-77605752D01*
X109218000Y-77605752D01*
X109025767Y-77526446D01*
X108935040Y-77544492D01*
X108499230Y-77744544D01*
X108173151Y-78096145D01*
X108006445Y-78545767D01*
X107875155Y-78545767D01*
X107827346Y-78305418D01*
X108306382Y-77826382D01*
X108415635Y-77662873D01*
X108454000Y-77470000D01*
X108454000Y-77146686D01*
X108499230Y-77195456D01*
X108935040Y-77395508D01*
X109025767Y-77413554D01*
X109218000Y-77334248D01*
X109218000Y-76202000D01*
X109222000Y-76202000D01*
X109222000Y-77334248D01*
X109414233Y-77413554D01*
X109504960Y-77395508D01*
X109940770Y-77195456D01*
X110266849Y-76843855D01*
X110433555Y-76394233D01*
X110354249Y-76202000D01*
X109222000Y-76202000D01*
X109218000Y-76202000D01*
X109198000Y-76202000D01*
X109198000Y-76198000D01*
X109218000Y-76198000D01*
X109218000Y-75065752D01*
X109222000Y-75065752D01*
X109222000Y-76198000D01*
X110354249Y-76198000D01*
X110363357Y-76175922D01*
X110531000Y-76175922D01*
X110531000Y-76224078D01*
X110624552Y-76694396D01*
X110890966Y-77093112D01*
X111289682Y-77359526D01*
X111760000Y-77453078D01*
X112230318Y-77359526D01*
X112629034Y-77093112D01*
X112895448Y-76694396D01*
X112989000Y-76224078D01*
X112989000Y-76175922D01*
X112895448Y-75705604D01*
X112629034Y-75306888D01*
X112230318Y-75040474D01*
X111760000Y-74946922D01*
X111289682Y-75040474D01*
X110890966Y-75306888D01*
X110624552Y-75705604D01*
X110531000Y-76175922D01*
X110363357Y-76175922D01*
X110433555Y-76005767D01*
X110266849Y-75556145D01*
X109940770Y-75204544D01*
X109504960Y-75004492D01*
X109414233Y-74986446D01*
X109222000Y-75065752D01*
X109218000Y-75065752D01*
X109025767Y-74986446D01*
X108935040Y-75004492D01*
X108499230Y-75204544D01*
X108423751Y-75285930D01*
X108415635Y-75245128D01*
X108306382Y-75081618D01*
X107544382Y-74319618D01*
X107380873Y-74210365D01*
X107188000Y-74172000D01*
X106380764Y-74172000D01*
X104924352Y-72715588D01*
X104760843Y-72606335D01*
X104567970Y-72567970D01*
X103480733Y-72567970D01*
X102552514Y-71639750D01*
X103511000Y-71639750D01*
X103511000Y-71918388D01*
X103568699Y-72057686D01*
X103675314Y-72164301D01*
X103814612Y-72222000D01*
X104043250Y-72222000D01*
X104138000Y-72127250D01*
X104138000Y-71545000D01*
X104142000Y-71545000D01*
X104142000Y-72127250D01*
X104236750Y-72222000D01*
X104465388Y-72222000D01*
X104604686Y-72164301D01*
X104711301Y-72057686D01*
X104769000Y-71918388D01*
X104769000Y-71639750D01*
X104674250Y-71545000D01*
X104142000Y-71545000D01*
X104138000Y-71545000D01*
X103605750Y-71545000D01*
X103511000Y-71639750D01*
X102552514Y-71639750D01*
X102496372Y-71583608D01*
X102332863Y-71474355D01*
X102139990Y-71435990D01*
X98375279Y-71435990D01*
X98441865Y-71275633D01*
X98441986Y-71136905D01*
X98706273Y-71137135D01*
X98992692Y-71018790D01*
X99212019Y-70799844D01*
X99330865Y-70513633D01*
X99331135Y-70203727D01*
X99241793Y-69987500D01*
X101659736Y-69987500D01*
X102471618Y-70799382D01*
X102635127Y-70908635D01*
X102828000Y-70947000D01*
X103570489Y-70947000D01*
X103602342Y-70994671D01*
X103568699Y-71028314D01*
X103511000Y-71167612D01*
X103511000Y-71446250D01*
X103605750Y-71541000D01*
X104138000Y-71541000D01*
X104138000Y-71521000D01*
X104142000Y-71521000D01*
X104142000Y-71541000D01*
X104674250Y-71541000D01*
X104769000Y-71446250D01*
X104769000Y-71167612D01*
X104711301Y-71028314D01*
X104677658Y-70994671D01*
X104726883Y-70921000D01*
X106055575Y-70921000D01*
X106055575Y-72667000D01*
X106084990Y-72814878D01*
X106168756Y-72940244D01*
X106294122Y-73024010D01*
X106442000Y-73053425D01*
X108442000Y-73053425D01*
X108589878Y-73024010D01*
X108715244Y-72940244D01*
X108799010Y-72814878D01*
X108828425Y-72667000D01*
X108828425Y-68167000D01*
X108799010Y-68019122D01*
X108715244Y-67893756D01*
X108589878Y-67809990D01*
X108442000Y-67780575D01*
X106442000Y-67780575D01*
X106294122Y-67809990D01*
X106168756Y-67893756D01*
X106084990Y-68019122D01*
X106055575Y-68167000D01*
X106055575Y-69913000D01*
X104692138Y-69913000D01*
X104663244Y-69869756D01*
X104644000Y-69856898D01*
X104644000Y-68199000D01*
X104605635Y-68006128D01*
X104605635Y-68006127D01*
X104496382Y-67842618D01*
X104490898Y-67837134D01*
X104556878Y-67824010D01*
X104682244Y-67740244D01*
X104766010Y-67614878D01*
X104795425Y-67467000D01*
X104795425Y-66767000D01*
X104766010Y-66619122D01*
X104682244Y-66493756D01*
X104556878Y-66409990D01*
X104409000Y-66380575D01*
X103109000Y-66380575D01*
X102961122Y-66409990D01*
X102866000Y-66473548D01*
X102866000Y-65860452D01*
X102961122Y-65924010D01*
X103109000Y-65953425D01*
X104409000Y-65953425D01*
X104556878Y-65924010D01*
X104682244Y-65840244D01*
X104766010Y-65714878D01*
X104795425Y-65567000D01*
X104795425Y-64867000D01*
X104766010Y-64719122D01*
X104682244Y-64593756D01*
X104556878Y-64509990D01*
X104490898Y-64496866D01*
X104496382Y-64491382D01*
X104605635Y-64327873D01*
X104644000Y-64135000D01*
X104644000Y-62477102D01*
X104663244Y-62464244D01*
X104709511Y-62395000D01*
X106055575Y-62395000D01*
X106055575Y-64167000D01*
X106084990Y-64314878D01*
X106168756Y-64440244D01*
X106294122Y-64524010D01*
X106442000Y-64553425D01*
X108442000Y-64553425D01*
X108589878Y-64524010D01*
X108715244Y-64440244D01*
X108799010Y-64314878D01*
X108828425Y-64167000D01*
X108828425Y-59667000D01*
X108799010Y-59519122D01*
X108715244Y-59393756D01*
X108589878Y-59309990D01*
X108442000Y-59280575D01*
X106442000Y-59280575D01*
X106294122Y-59309990D01*
X106168756Y-59393756D01*
X106084990Y-59519122D01*
X106055575Y-59667000D01*
X106055575Y-61387000D01*
X104709511Y-61387000D01*
X104677658Y-61339329D01*
X104711301Y-61305686D01*
X104769000Y-61166388D01*
X104769000Y-60887750D01*
X104674250Y-60793000D01*
X104142000Y-60793000D01*
X104142000Y-60813000D01*
X104138000Y-60813000D01*
X104138000Y-60793000D01*
X103605750Y-60793000D01*
X103511000Y-60887750D01*
X103511000Y-61166388D01*
X103568699Y-61305686D01*
X103602342Y-61339329D01*
X103532990Y-61443122D01*
X103503575Y-61591000D01*
X103503575Y-62191000D01*
X103532990Y-62338878D01*
X103616756Y-62464244D01*
X103636000Y-62477102D01*
X103636000Y-63926236D01*
X103402618Y-64159618D01*
X103293365Y-64323127D01*
X103271299Y-64434059D01*
X103262047Y-64480575D01*
X103109000Y-64480575D01*
X102961122Y-64509990D01*
X102835756Y-64593756D01*
X102756081Y-64713000D01*
X102677000Y-64713000D01*
X102484127Y-64751365D01*
X102320618Y-64860618D01*
X102005618Y-65175618D01*
X101896365Y-65339127D01*
X101896365Y-65339128D01*
X101879000Y-65426427D01*
X101879000Y-64806612D01*
X101821301Y-64667314D01*
X101714686Y-64560699D01*
X101575388Y-64503000D01*
X101246750Y-64503000D01*
X101152000Y-64597750D01*
X101152000Y-65530000D01*
X101172000Y-65530000D01*
X101172000Y-65534000D01*
X101152000Y-65534000D01*
X101152000Y-66466250D01*
X101246750Y-66561000D01*
X101298750Y-66561000D01*
X101205000Y-66654750D01*
X101205000Y-67562000D01*
X101225000Y-67562000D01*
X101225000Y-67566000D01*
X101205000Y-67566000D01*
X101205000Y-67586000D01*
X101201000Y-67586000D01*
X101201000Y-67566000D01*
X100418750Y-67566000D01*
X100324000Y-67660750D01*
X100324000Y-68264388D01*
X100381699Y-68403686D01*
X100457513Y-68479500D01*
X99950418Y-68479500D01*
X99976244Y-68462244D01*
X100060010Y-68336878D01*
X100089425Y-68189000D01*
X100089425Y-66939000D01*
X100074430Y-66863612D01*
X100324000Y-66863612D01*
X100324000Y-67467250D01*
X100418750Y-67562000D01*
X101201000Y-67562000D01*
X101201000Y-66654750D01*
X101106250Y-66560000D01*
X101054250Y-66560000D01*
X101148000Y-66466250D01*
X101148000Y-65534000D01*
X100515750Y-65534000D01*
X100421000Y-65628750D01*
X100421000Y-66257388D01*
X100478699Y-66396686D01*
X100585314Y-66503301D01*
X100722198Y-66560000D01*
X100627612Y-66560000D01*
X100488314Y-66617699D01*
X100381699Y-66724314D01*
X100324000Y-66863612D01*
X100074430Y-66863612D01*
X100060010Y-66791122D01*
X99976244Y-66665756D01*
X99850878Y-66581990D01*
X99703000Y-66552575D01*
X99679683Y-66552575D01*
X99747878Y-66539010D01*
X99873244Y-66455244D01*
X99957010Y-66329878D01*
X99986425Y-66182000D01*
X99986425Y-64882000D01*
X99971430Y-64806612D01*
X100421000Y-64806612D01*
X100421000Y-65435250D01*
X100515750Y-65530000D01*
X101148000Y-65530000D01*
X101148000Y-64597750D01*
X101053250Y-64503000D01*
X100724612Y-64503000D01*
X100585314Y-64560699D01*
X100478699Y-64667314D01*
X100421000Y-64806612D01*
X99971430Y-64806612D01*
X99957010Y-64734122D01*
X99873244Y-64608756D01*
X99747878Y-64524990D01*
X99600000Y-64495575D01*
X98900000Y-64495575D01*
X98752122Y-64524990D01*
X98626756Y-64608756D01*
X98542990Y-64734122D01*
X98513575Y-64882000D01*
X98513575Y-65028000D01*
X98298000Y-65028000D01*
X98105127Y-65066365D01*
X97941618Y-65175618D01*
X96645161Y-66472075D01*
X96234000Y-66472075D01*
X96234000Y-66430250D01*
X96139250Y-66335500D01*
X95732000Y-66335500D01*
X95732000Y-66355500D01*
X95728000Y-66355500D01*
X95728000Y-66335500D01*
X95708000Y-66335500D01*
X95708000Y-66331500D01*
X95728000Y-66331500D01*
X95728000Y-66242750D01*
X95732000Y-66238750D01*
X95732000Y-66331500D01*
X96139250Y-66331500D01*
X96234000Y-66236750D01*
X96234000Y-65908112D01*
X96176301Y-65768814D01*
X96069686Y-65662199D01*
X95930388Y-65604500D01*
X95826750Y-65604500D01*
X95732000Y-65699250D01*
X95732000Y-65903284D01*
X95728000Y-65893627D01*
X95728000Y-65699250D01*
X95634757Y-65606007D01*
X96071382Y-65169382D01*
X96171549Y-65019471D01*
X96297000Y-65044425D01*
X96997000Y-65044425D01*
X97144878Y-65015010D01*
X97270244Y-64931244D01*
X97354010Y-64805878D01*
X97383425Y-64658000D01*
X97383425Y-63358000D01*
X97354010Y-63210122D01*
X97315411Y-63152353D01*
X97351232Y-63116532D01*
X97384382Y-63094382D01*
X97407867Y-63059233D01*
X98989446Y-63059233D01*
X99007492Y-63149960D01*
X99207544Y-63585770D01*
X99559145Y-63911849D01*
X100008767Y-64078555D01*
X100201000Y-63999249D01*
X100201000Y-62867000D01*
X100205000Y-62867000D01*
X100205000Y-63999249D01*
X100397233Y-64078555D01*
X100846855Y-63911849D01*
X101198456Y-63585770D01*
X101398508Y-63149960D01*
X101416554Y-63059233D01*
X101337248Y-62867000D01*
X100205000Y-62867000D01*
X100201000Y-62867000D01*
X99068752Y-62867000D01*
X98989446Y-63059233D01*
X97407867Y-63059233D01*
X97493635Y-62930872D01*
X97532000Y-62738000D01*
X97532000Y-62670767D01*
X98989446Y-62670767D01*
X99068752Y-62863000D01*
X100201000Y-62863000D01*
X100201000Y-61730751D01*
X100205000Y-61730751D01*
X100205000Y-62863000D01*
X101337248Y-62863000D01*
X101416554Y-62670767D01*
X101398508Y-62580040D01*
X101198456Y-62144230D01*
X100846855Y-61818151D01*
X100397233Y-61651445D01*
X100205000Y-61730751D01*
X100201000Y-61730751D01*
X100008767Y-61651445D01*
X99559145Y-61818151D01*
X99207544Y-62144230D01*
X99007492Y-62580040D01*
X98989446Y-62670767D01*
X97532000Y-62670767D01*
X97532000Y-61468000D01*
X97502114Y-61317756D01*
X97493635Y-61275127D01*
X97384382Y-61111618D01*
X97003382Y-60730618D01*
X96962797Y-60703500D01*
X98966575Y-60703500D01*
X98966575Y-61175000D01*
X98995990Y-61322878D01*
X99079756Y-61448244D01*
X99205122Y-61532010D01*
X99353000Y-61561425D01*
X101053000Y-61561425D01*
X101200878Y-61532010D01*
X101326244Y-61448244D01*
X101410010Y-61322878D01*
X101439425Y-61175000D01*
X101439425Y-60415612D01*
X103511000Y-60415612D01*
X103511000Y-60694250D01*
X103605750Y-60789000D01*
X104138000Y-60789000D01*
X104138000Y-60206750D01*
X104142000Y-60206750D01*
X104142000Y-60789000D01*
X104674250Y-60789000D01*
X104769000Y-60694250D01*
X104769000Y-60415612D01*
X104711301Y-60276314D01*
X104604686Y-60169699D01*
X104465388Y-60112000D01*
X104236750Y-60112000D01*
X104142000Y-60206750D01*
X104138000Y-60206750D01*
X104043250Y-60112000D01*
X103814612Y-60112000D01*
X103675314Y-60169699D01*
X103568699Y-60276314D01*
X103511000Y-60415612D01*
X101439425Y-60415612D01*
X101439425Y-59475000D01*
X101410010Y-59327122D01*
X101326244Y-59201756D01*
X101200878Y-59117990D01*
X101053000Y-59088575D01*
X99353000Y-59088575D01*
X99205122Y-59117990D01*
X99079756Y-59201756D01*
X98995990Y-59327122D01*
X98966575Y-59475000D01*
X98966575Y-59570500D01*
X96539454Y-59570500D01*
X96518244Y-59538756D01*
X96392878Y-59454990D01*
X96245000Y-59425575D01*
X95185000Y-59425575D01*
X95037122Y-59454990D01*
X94911756Y-59538756D01*
X94827990Y-59664122D01*
X94798575Y-59812000D01*
X94798575Y-60049811D01*
X94529382Y-59780618D01*
X94409211Y-59700322D01*
X94402010Y-59664122D01*
X94318244Y-59538756D01*
X94192878Y-59454990D01*
X94045000Y-59425575D01*
X92985000Y-59425575D01*
X92837122Y-59454990D01*
X92711756Y-59538756D01*
X92690546Y-59570500D01*
X91863000Y-59570500D01*
X91646210Y-59613622D01*
X91462424Y-59736424D01*
X90999424Y-60199424D01*
X90876622Y-60383210D01*
X90833500Y-60600000D01*
X90833500Y-63165348D01*
X90753868Y-63244980D01*
X81811425Y-63244980D01*
X81811425Y-62300000D01*
X81782010Y-62152122D01*
X81698244Y-62026756D01*
X81572878Y-61942990D01*
X81425000Y-61913575D01*
X80175000Y-61913575D01*
X80027122Y-61942990D01*
X79901756Y-62026756D01*
X79817990Y-62152122D01*
X79788575Y-62300000D01*
X79788575Y-63244980D01*
X79766500Y-63244980D01*
X79766500Y-63000000D01*
X79726718Y-62800000D01*
X79723378Y-62783209D01*
X79600576Y-62599424D01*
X79300576Y-62299424D01*
X79116790Y-62176622D01*
X78900000Y-62133500D01*
X78625169Y-62133500D01*
X78525000Y-62113575D01*
X77175000Y-62113575D01*
X77027122Y-62142990D01*
X76901756Y-62226756D01*
X76817990Y-62352122D01*
X76788575Y-62500000D01*
X76788575Y-62858218D01*
X76657128Y-62884365D01*
X76531387Y-62968382D01*
X76493618Y-62993618D01*
X75643628Y-63843608D01*
X75534375Y-64007117D01*
X75523145Y-64063575D01*
X75496010Y-64199990D01*
X75496010Y-66750010D01*
X75534375Y-66942883D01*
X75643628Y-67106392D01*
X77088616Y-68551379D01*
X77088618Y-68551382D01*
X77252128Y-68660635D01*
X77445000Y-68699000D01*
X80113552Y-68699000D01*
X80306425Y-68660635D01*
X80469934Y-68551382D01*
X83243316Y-65778000D01*
X89485281Y-65778000D01*
X89333419Y-65929598D01*
X89214573Y-66215809D01*
X89214383Y-66433816D01*
X88959308Y-66539210D01*
X88739981Y-66758156D01*
X88621135Y-67044367D01*
X88620865Y-67354273D01*
X88672607Y-67479500D01*
X86191685Y-67479500D01*
X86191680Y-67479499D01*
X85998808Y-67517865D01*
X85835298Y-67627118D01*
X85835296Y-67627121D01*
X80052416Y-73410000D01*
X75438000Y-73410000D01*
X75245128Y-73448365D01*
X75081618Y-73557618D01*
X74319618Y-74319618D01*
X74210365Y-74483127D01*
X74200587Y-74532284D01*
X74172000Y-74676000D01*
X74114000Y-74676000D01*
X74114000Y-60896750D01*
X79796000Y-60896750D01*
X79796000Y-61375388D01*
X79853699Y-61514686D01*
X79960314Y-61621301D01*
X80099612Y-61679000D01*
X80703250Y-61679000D01*
X80798000Y-61584250D01*
X80798000Y-60802000D01*
X80802000Y-60802000D01*
X80802000Y-61584250D01*
X80896750Y-61679000D01*
X81500388Y-61679000D01*
X81639686Y-61621301D01*
X81746301Y-61514686D01*
X81804000Y-61375388D01*
X81804000Y-60896750D01*
X81709250Y-60802000D01*
X80802000Y-60802000D01*
X80798000Y-60802000D01*
X79890750Y-60802000D01*
X79796000Y-60896750D01*
X74114000Y-60896750D01*
X74114000Y-60224612D01*
X79796000Y-60224612D01*
X79796000Y-60703250D01*
X79890750Y-60798000D01*
X80798000Y-60798000D01*
X80798000Y-60015750D01*
X80802000Y-60015750D01*
X80802000Y-60798000D01*
X81709250Y-60798000D01*
X81804000Y-60703250D01*
X81804000Y-60224612D01*
X81746301Y-60085314D01*
X81639686Y-59978699D01*
X81500388Y-59921000D01*
X80896750Y-59921000D01*
X80802000Y-60015750D01*
X80798000Y-60015750D01*
X80703250Y-59921000D01*
X80099612Y-59921000D01*
X79960314Y-59978699D01*
X79853699Y-60085314D01*
X79796000Y-60224612D01*
X74114000Y-60224612D01*
X74114000Y-56334000D01*
X113846000Y-56334000D01*
X113846000Y-82096000D01*
X113846000Y-82096000D01*
G37*
X113846000Y-82096000D02*
X74114000Y-82096000D01*
X74114000Y-74676000D01*
X74172000Y-74676000D01*
X74172000Y-77978000D01*
X74210365Y-78170873D01*
X74319618Y-78334382D01*
X75026045Y-79040809D01*
X75064552Y-79234396D01*
X75330966Y-79633112D01*
X75729682Y-79899526D01*
X76200000Y-79993078D01*
X76670318Y-79899526D01*
X77069034Y-79633112D01*
X77335448Y-79234396D01*
X77429000Y-78764078D01*
X77429000Y-78715922D01*
X77511000Y-78715922D01*
X77511000Y-78764078D01*
X77604552Y-79234396D01*
X77870966Y-79633112D01*
X78269682Y-79899526D01*
X78740000Y-79993078D01*
X79210318Y-79899526D01*
X79609034Y-79633112D01*
X79875448Y-79234396D01*
X79969000Y-78764078D01*
X79969000Y-78715922D01*
X79875448Y-78245604D01*
X79609034Y-77846888D01*
X79210318Y-77580474D01*
X78740000Y-77486922D01*
X78269682Y-77580474D01*
X77870966Y-77846888D01*
X77604552Y-78245604D01*
X77511000Y-78715922D01*
X77429000Y-78715922D01*
X77335448Y-78245604D01*
X77069034Y-77846888D01*
X76670318Y-77580474D01*
X76200000Y-77486922D01*
X75729682Y-77580474D01*
X75330966Y-77846888D01*
X75301600Y-77890836D01*
X75180000Y-77769236D01*
X75180000Y-77392229D01*
X75202122Y-77407010D01*
X75350000Y-77436425D01*
X77050000Y-77436425D01*
X77197878Y-77407010D01*
X77323244Y-77323244D01*
X77407010Y-77197878D01*
X77436425Y-77050000D01*
X77436425Y-75350000D01*
X77407010Y-75202122D01*
X77323244Y-75076756D01*
X77197878Y-74992990D01*
X77050000Y-74963575D01*
X77049189Y-74963575D01*
X77086764Y-74926000D01*
X79809236Y-74926000D01*
X79653618Y-75081618D01*
X79544365Y-75245127D01*
X79544365Y-75245128D01*
X79541108Y-75261501D01*
X79210318Y-75040474D01*
X78740000Y-74946922D01*
X78269682Y-75040474D01*
X77870966Y-75306888D01*
X77604552Y-75705604D01*
X77511000Y-76175922D01*
X77511000Y-76224078D01*
X77604552Y-76694396D01*
X77870966Y-77093112D01*
X78269682Y-77359526D01*
X78740000Y-77453078D01*
X79210318Y-77359526D01*
X79506000Y-77161957D01*
X79506000Y-77470000D01*
X79544365Y-77662873D01*
X79653618Y-77826382D01*
X80132654Y-78305418D01*
X80051000Y-78715922D01*
X80051000Y-78764078D01*
X80144552Y-79234396D01*
X80410966Y-79633112D01*
X80809682Y-79899526D01*
X81280000Y-79993078D01*
X81750318Y-79899526D01*
X82149034Y-79633112D01*
X82415448Y-79234396D01*
X82509000Y-78764078D01*
X82509000Y-78715922D01*
X82591000Y-78715922D01*
X82591000Y-78764078D01*
X82684552Y-79234396D01*
X82950966Y-79633112D01*
X83349682Y-79899526D01*
X83820000Y-79993078D01*
X84290318Y-79899526D01*
X84689034Y-79633112D01*
X84955448Y-79234396D01*
X85015154Y-78934233D01*
X85146445Y-78934233D01*
X85313151Y-79383855D01*
X85639230Y-79735456D01*
X86075040Y-79935508D01*
X86165767Y-79953554D01*
X86358000Y-79874248D01*
X86358000Y-78742000D01*
X86362000Y-78742000D01*
X86362000Y-79874248D01*
X86554233Y-79953554D01*
X86644960Y-79935508D01*
X87080770Y-79735456D01*
X87406849Y-79383855D01*
X87573555Y-78934233D01*
X87494249Y-78742000D01*
X86362000Y-78742000D01*
X86358000Y-78742000D01*
X85225751Y-78742000D01*
X85146445Y-78934233D01*
X85015154Y-78934233D01*
X85049000Y-78764078D01*
X85049000Y-78715922D01*
X85015155Y-78545767D01*
X85146445Y-78545767D01*
X85225751Y-78738000D01*
X86358000Y-78738000D01*
X86358000Y-77605752D01*
X86362000Y-77605752D01*
X86362000Y-78738000D01*
X87494249Y-78738000D01*
X87503357Y-78715922D01*
X87671000Y-78715922D01*
X87671000Y-78764078D01*
X87764552Y-79234396D01*
X88030966Y-79633112D01*
X88429682Y-79899526D01*
X88900000Y-79993078D01*
X89370318Y-79899526D01*
X89769034Y-79633112D01*
X90035448Y-79234396D01*
X90129000Y-78764078D01*
X90129000Y-78715922D01*
X90035448Y-78245604D01*
X89769034Y-77846888D01*
X89370318Y-77580474D01*
X88900000Y-77486922D01*
X88429682Y-77580474D01*
X88030966Y-77846888D01*
X87764552Y-78245604D01*
X87671000Y-78715922D01*
X87503357Y-78715922D01*
X87573555Y-78545767D01*
X87406849Y-78096145D01*
X87080770Y-77744544D01*
X86644960Y-77544492D01*
X86554233Y-77526446D01*
X86362000Y-77605752D01*
X86358000Y-77605752D01*
X86165767Y-77526446D01*
X86075040Y-77544492D01*
X85639230Y-77744544D01*
X85313151Y-78096145D01*
X85146445Y-78545767D01*
X85015155Y-78545767D01*
X84955448Y-78245604D01*
X84689034Y-77846888D01*
X84290318Y-77580474D01*
X83820000Y-77486922D01*
X83349682Y-77580474D01*
X82950966Y-77846888D01*
X82684552Y-78245604D01*
X82591000Y-78715922D01*
X82509000Y-78715922D01*
X82415448Y-78245604D01*
X82149034Y-77846888D01*
X81750318Y-77580474D01*
X81280000Y-77486922D01*
X80829330Y-77576566D01*
X80514000Y-77261236D01*
X80514000Y-77161957D01*
X80809682Y-77359526D01*
X81280000Y-77453078D01*
X81750318Y-77359526D01*
X82149034Y-77093112D01*
X82415448Y-76694396D01*
X82509000Y-76224078D01*
X82509000Y-76175922D01*
X82591000Y-76175922D01*
X82591000Y-76224078D01*
X82684552Y-76694396D01*
X82950966Y-77093112D01*
X83349682Y-77359526D01*
X83820000Y-77453078D01*
X84290318Y-77359526D01*
X84689034Y-77093112D01*
X84955448Y-76694396D01*
X85015154Y-76394233D01*
X85146445Y-76394233D01*
X85313151Y-76843855D01*
X85639230Y-77195456D01*
X86075040Y-77395508D01*
X86165767Y-77413554D01*
X86358000Y-77334248D01*
X86358000Y-76202000D01*
X86362000Y-76202000D01*
X86362000Y-77334248D01*
X86554233Y-77413554D01*
X86644960Y-77395508D01*
X87080770Y-77195456D01*
X87406849Y-76843855D01*
X87573555Y-76394233D01*
X87494249Y-76202000D01*
X86362000Y-76202000D01*
X86358000Y-76202000D01*
X85225751Y-76202000D01*
X85146445Y-76394233D01*
X85015154Y-76394233D01*
X85049000Y-76224078D01*
X85049000Y-76175922D01*
X85015155Y-76005767D01*
X85146445Y-76005767D01*
X85225751Y-76198000D01*
X86358000Y-76198000D01*
X86358000Y-75065752D01*
X86362000Y-75065752D01*
X86362000Y-76198000D01*
X87494249Y-76198000D01*
X87503357Y-76175922D01*
X87671000Y-76175922D01*
X87671000Y-76224078D01*
X87764552Y-76694396D01*
X88030966Y-77093112D01*
X88429682Y-77359526D01*
X88900000Y-77453078D01*
X89370318Y-77359526D01*
X89769034Y-77093112D01*
X90035448Y-76694396D01*
X90129000Y-76224078D01*
X90129000Y-76175922D01*
X90035448Y-75705604D01*
X89769034Y-75306888D01*
X89370318Y-75040474D01*
X88900000Y-74946922D01*
X88429682Y-75040474D01*
X88030966Y-75306888D01*
X87764552Y-75705604D01*
X87671000Y-76175922D01*
X87503357Y-76175922D01*
X87573555Y-76005767D01*
X87406849Y-75556145D01*
X87080770Y-75204544D01*
X86644960Y-75004492D01*
X86554233Y-74986446D01*
X86362000Y-75065752D01*
X86358000Y-75065752D01*
X86165767Y-74986446D01*
X86075040Y-75004492D01*
X85639230Y-75204544D01*
X85313151Y-75556145D01*
X85146445Y-76005767D01*
X85015155Y-76005767D01*
X84955448Y-75705604D01*
X84689034Y-75306888D01*
X84290318Y-75040474D01*
X83820000Y-74946922D01*
X83349682Y-75040474D01*
X82950966Y-75306888D01*
X82684552Y-75705604D01*
X82591000Y-76175922D01*
X82509000Y-76175922D01*
X82415448Y-75705604D01*
X82149034Y-75306888D01*
X81870144Y-75120539D01*
X84011933Y-72978750D01*
X86880000Y-72978750D01*
X86880000Y-73457388D01*
X86937699Y-73596686D01*
X87044314Y-73703301D01*
X87183612Y-73761000D01*
X87787250Y-73761000D01*
X87882000Y-73666250D01*
X87882000Y-72884000D01*
X87886000Y-72884000D01*
X87886000Y-73666250D01*
X87980750Y-73761000D01*
X88584388Y-73761000D01*
X88723686Y-73703301D01*
X88830301Y-73596686D01*
X88888000Y-73457388D01*
X88888000Y-73121750D01*
X88906000Y-73121750D01*
X88906000Y-73400388D01*
X88963699Y-73539686D01*
X89070314Y-73646301D01*
X89209612Y-73704000D01*
X89438250Y-73704000D01*
X89533000Y-73609250D01*
X89533000Y-73027000D01*
X89537000Y-73027000D01*
X89537000Y-73609250D01*
X89631750Y-73704000D01*
X89860388Y-73704000D01*
X89999686Y-73646301D01*
X90106301Y-73539686D01*
X90164000Y-73400388D01*
X90164000Y-73121750D01*
X90069250Y-73027000D01*
X89537000Y-73027000D01*
X89533000Y-73027000D01*
X89000750Y-73027000D01*
X88906000Y-73121750D01*
X88888000Y-73121750D01*
X88888000Y-72978750D01*
X88793250Y-72884000D01*
X87886000Y-72884000D01*
X87882000Y-72884000D01*
X86974750Y-72884000D01*
X86880000Y-72978750D01*
X84011933Y-72978750D01*
X84684071Y-72306612D01*
X86880000Y-72306612D01*
X86880000Y-72785250D01*
X86974750Y-72880000D01*
X87882000Y-72880000D01*
X87882000Y-72097750D01*
X87886000Y-72097750D01*
X87886000Y-72880000D01*
X88793250Y-72880000D01*
X88888000Y-72785250D01*
X88888000Y-72306612D01*
X88830301Y-72167314D01*
X88723686Y-72060699D01*
X88584388Y-72003000D01*
X87980750Y-72003000D01*
X87886000Y-72097750D01*
X87882000Y-72097750D01*
X87787250Y-72003000D01*
X87183612Y-72003000D01*
X87044314Y-72060699D01*
X86937699Y-72167314D01*
X86880000Y-72306612D01*
X84684071Y-72306612D01*
X87011692Y-69978991D01*
X88848276Y-69978991D01*
X88821129Y-70044367D01*
X88821022Y-70166792D01*
X88782244Y-70108756D01*
X88656878Y-70024990D01*
X88509000Y-69995575D01*
X87259000Y-69995575D01*
X87111122Y-70024990D01*
X86985756Y-70108756D01*
X86901990Y-70234122D01*
X86872575Y-70382000D01*
X86872575Y-71382000D01*
X86901990Y-71529878D01*
X86985756Y-71655244D01*
X87111122Y-71739010D01*
X87259000Y-71768425D01*
X88509000Y-71768425D01*
X88656878Y-71739010D01*
X88782244Y-71655244D01*
X88866010Y-71529878D01*
X88894629Y-71386000D01*
X88917994Y-71386000D01*
X88999740Y-71369740D01*
X88927990Y-71477122D01*
X88898575Y-71625000D01*
X88898575Y-72225000D01*
X88927990Y-72372878D01*
X88997342Y-72476671D01*
X88963699Y-72510314D01*
X88906000Y-72649612D01*
X88906000Y-72928250D01*
X89000750Y-73023000D01*
X89533000Y-73023000D01*
X89533000Y-73003000D01*
X89537000Y-73003000D01*
X89537000Y-73023000D01*
X90069250Y-73023000D01*
X90164000Y-72928250D01*
X90164000Y-72649612D01*
X90106301Y-72510314D01*
X90072658Y-72476671D01*
X90142010Y-72372878D01*
X90171425Y-72225000D01*
X90171425Y-71951339D01*
X90223827Y-71898937D01*
X90451273Y-71899135D01*
X90737692Y-71780790D01*
X90957019Y-71561844D01*
X91075865Y-71275633D01*
X91076058Y-71053706D01*
X91142264Y-70987500D01*
X91192672Y-70987500D01*
X91230000Y-70994925D01*
X91718575Y-70994925D01*
X91718575Y-71483500D01*
X91726000Y-71520828D01*
X91726000Y-73688000D01*
X91764365Y-73880873D01*
X91873618Y-74044382D01*
X93623618Y-75794382D01*
X93787128Y-75903635D01*
X93980000Y-75942000D01*
X96989236Y-75942000D01*
X97603618Y-76556382D01*
X97767128Y-76665635D01*
X97823575Y-76676863D01*
X97823575Y-77050000D01*
X97852990Y-77197878D01*
X97936756Y-77323244D01*
X98062122Y-77407010D01*
X98210000Y-77436425D01*
X99650811Y-77436425D01*
X99510670Y-77576566D01*
X99060000Y-77486922D01*
X98589682Y-77580474D01*
X98190966Y-77846888D01*
X97924552Y-78245604D01*
X97831000Y-78715922D01*
X97831000Y-78764078D01*
X97924552Y-79234396D01*
X98190966Y-79633112D01*
X98589682Y-79899526D01*
X99060000Y-79993078D01*
X99530318Y-79899526D01*
X99929034Y-79633112D01*
X100195448Y-79234396D01*
X100289000Y-78764078D01*
X100289000Y-78715922D01*
X100207346Y-78305418D01*
X100686382Y-77826382D01*
X100795635Y-77662873D01*
X100834000Y-77470000D01*
X100834000Y-77161957D01*
X101129682Y-77359526D01*
X101600000Y-77453078D01*
X102070318Y-77359526D01*
X102366000Y-77161957D01*
X102366000Y-77261236D01*
X102050670Y-77576566D01*
X101600000Y-77486922D01*
X101129682Y-77580474D01*
X100730966Y-77846888D01*
X100464552Y-78245604D01*
X100371000Y-78715922D01*
X100371000Y-78764078D01*
X100464552Y-79234396D01*
X100730966Y-79633112D01*
X101129682Y-79899526D01*
X101600000Y-79993078D01*
X102070318Y-79899526D01*
X102469034Y-79633112D01*
X102735448Y-79234396D01*
X102829000Y-78764078D01*
X102829000Y-78715922D01*
X102747346Y-78305418D01*
X103226382Y-77826382D01*
X103335635Y-77662873D01*
X103374000Y-77470000D01*
X103374000Y-77161957D01*
X103669682Y-77359526D01*
X104140000Y-77453078D01*
X104610318Y-77359526D01*
X104906000Y-77161957D01*
X104906000Y-77261236D01*
X104590670Y-77576566D01*
X104140000Y-77486922D01*
X103669682Y-77580474D01*
X103270966Y-77846888D01*
X103004552Y-78245604D01*
X102911000Y-78715922D01*
X102911000Y-78764078D01*
X103004552Y-79234396D01*
X103270966Y-79633112D01*
X103669682Y-79899526D01*
X104140000Y-79993078D01*
X104610318Y-79899526D01*
X105009034Y-79633112D01*
X105275448Y-79234396D01*
X105369000Y-78764078D01*
X105369000Y-78715922D01*
X105287346Y-78305418D01*
X105766382Y-77826382D01*
X105875635Y-77662873D01*
X105914000Y-77470000D01*
X105914000Y-77161957D01*
X106209682Y-77359526D01*
X106680000Y-77453078D01*
X107150318Y-77359526D01*
X107446000Y-77161957D01*
X107446000Y-77261236D01*
X107130670Y-77576566D01*
X106680000Y-77486922D01*
X106209682Y-77580474D01*
X105810966Y-77846888D01*
X105544552Y-78245604D01*
X105451000Y-78715922D01*
X105451000Y-78764078D01*
X105544552Y-79234396D01*
X105810966Y-79633112D01*
X106209682Y-79899526D01*
X106680000Y-79993078D01*
X107150318Y-79899526D01*
X107549034Y-79633112D01*
X107815448Y-79234396D01*
X107875154Y-78934233D01*
X108006445Y-78934233D01*
X108173151Y-79383855D01*
X108499230Y-79735456D01*
X108935040Y-79935508D01*
X109025767Y-79953554D01*
X109218000Y-79874248D01*
X109218000Y-78742000D01*
X109222000Y-78742000D01*
X109222000Y-79874248D01*
X109414233Y-79953554D01*
X109504960Y-79935508D01*
X109940770Y-79735456D01*
X110266849Y-79383855D01*
X110433555Y-78934233D01*
X110354249Y-78742000D01*
X109222000Y-78742000D01*
X109218000Y-78742000D01*
X108085751Y-78742000D01*
X108006445Y-78934233D01*
X107875154Y-78934233D01*
X107909000Y-78764078D01*
X107909000Y-78715922D01*
X107875155Y-78545767D01*
X108006445Y-78545767D01*
X108085751Y-78738000D01*
X109218000Y-78738000D01*
X109218000Y-77605752D01*
X109222000Y-77605752D01*
X109222000Y-78738000D01*
X110354249Y-78738000D01*
X110363357Y-78715922D01*
X110531000Y-78715922D01*
X110531000Y-78764078D01*
X110624552Y-79234396D01*
X110890966Y-79633112D01*
X111289682Y-79899526D01*
X111760000Y-79993078D01*
X112230318Y-79899526D01*
X112629034Y-79633112D01*
X112895448Y-79234396D01*
X112989000Y-78764078D01*
X112989000Y-78715922D01*
X112895448Y-78245604D01*
X112629034Y-77846888D01*
X112230318Y-77580474D01*
X111760000Y-77486922D01*
X111289682Y-77580474D01*
X110890966Y-77846888D01*
X110624552Y-78245604D01*
X110531000Y-78715922D01*
X110363357Y-78715922D01*
X110433555Y-78545767D01*
X110266849Y-78096145D01*
X109940770Y-77744544D01*
X109504960Y-77544492D01*
X109414233Y-77526446D01*
X109222000Y-77605752D01*
X109218000Y-77605752D01*
X109025767Y-77526446D01*
X108935040Y-77544492D01*
X108499230Y-77744544D01*
X108173151Y-78096145D01*
X108006445Y-78545767D01*
X107875155Y-78545767D01*
X107827346Y-78305418D01*
X108306382Y-77826382D01*
X108415635Y-77662873D01*
X108454000Y-77470000D01*
X108454000Y-77146686D01*
X108499230Y-77195456D01*
X108935040Y-77395508D01*
X109025767Y-77413554D01*
X109218000Y-77334248D01*
X109218000Y-76202000D01*
X109222000Y-76202000D01*
X109222000Y-77334248D01*
X109414233Y-77413554D01*
X109504960Y-77395508D01*
X109940770Y-77195456D01*
X110266849Y-76843855D01*
X110433555Y-76394233D01*
X110354249Y-76202000D01*
X109222000Y-76202000D01*
X109218000Y-76202000D01*
X109198000Y-76202000D01*
X109198000Y-76198000D01*
X109218000Y-76198000D01*
X109218000Y-75065752D01*
X109222000Y-75065752D01*
X109222000Y-76198000D01*
X110354249Y-76198000D01*
X110363357Y-76175922D01*
X110531000Y-76175922D01*
X110531000Y-76224078D01*
X110624552Y-76694396D01*
X110890966Y-77093112D01*
X111289682Y-77359526D01*
X111760000Y-77453078D01*
X112230318Y-77359526D01*
X112629034Y-77093112D01*
X112895448Y-76694396D01*
X112989000Y-76224078D01*
X112989000Y-76175922D01*
X112895448Y-75705604D01*
X112629034Y-75306888D01*
X112230318Y-75040474D01*
X111760000Y-74946922D01*
X111289682Y-75040474D01*
X110890966Y-75306888D01*
X110624552Y-75705604D01*
X110531000Y-76175922D01*
X110363357Y-76175922D01*
X110433555Y-76005767D01*
X110266849Y-75556145D01*
X109940770Y-75204544D01*
X109504960Y-75004492D01*
X109414233Y-74986446D01*
X109222000Y-75065752D01*
X109218000Y-75065752D01*
X109025767Y-74986446D01*
X108935040Y-75004492D01*
X108499230Y-75204544D01*
X108423751Y-75285930D01*
X108415635Y-75245128D01*
X108306382Y-75081618D01*
X107544382Y-74319618D01*
X107380873Y-74210365D01*
X107188000Y-74172000D01*
X106380764Y-74172000D01*
X104924352Y-72715588D01*
X104760843Y-72606335D01*
X104567970Y-72567970D01*
X103480733Y-72567970D01*
X102552514Y-71639750D01*
X103511000Y-71639750D01*
X103511000Y-71918388D01*
X103568699Y-72057686D01*
X103675314Y-72164301D01*
X103814612Y-72222000D01*
X104043250Y-72222000D01*
X104138000Y-72127250D01*
X104138000Y-71545000D01*
X104142000Y-71545000D01*
X104142000Y-72127250D01*
X104236750Y-72222000D01*
X104465388Y-72222000D01*
X104604686Y-72164301D01*
X104711301Y-72057686D01*
X104769000Y-71918388D01*
X104769000Y-71639750D01*
X104674250Y-71545000D01*
X104142000Y-71545000D01*
X104138000Y-71545000D01*
X103605750Y-71545000D01*
X103511000Y-71639750D01*
X102552514Y-71639750D01*
X102496372Y-71583608D01*
X102332863Y-71474355D01*
X102139990Y-71435990D01*
X98375279Y-71435990D01*
X98441865Y-71275633D01*
X98441986Y-71136905D01*
X98706273Y-71137135D01*
X98992692Y-71018790D01*
X99212019Y-70799844D01*
X99330865Y-70513633D01*
X99331135Y-70203727D01*
X99241793Y-69987500D01*
X101659736Y-69987500D01*
X102471618Y-70799382D01*
X102635127Y-70908635D01*
X102828000Y-70947000D01*
X103570489Y-70947000D01*
X103602342Y-70994671D01*
X103568699Y-71028314D01*
X103511000Y-71167612D01*
X103511000Y-71446250D01*
X103605750Y-71541000D01*
X104138000Y-71541000D01*
X104138000Y-71521000D01*
X104142000Y-71521000D01*
X104142000Y-71541000D01*
X104674250Y-71541000D01*
X104769000Y-71446250D01*
X104769000Y-71167612D01*
X104711301Y-71028314D01*
X104677658Y-70994671D01*
X104726883Y-70921000D01*
X106055575Y-70921000D01*
X106055575Y-72667000D01*
X106084990Y-72814878D01*
X106168756Y-72940244D01*
X106294122Y-73024010D01*
X106442000Y-73053425D01*
X108442000Y-73053425D01*
X108589878Y-73024010D01*
X108715244Y-72940244D01*
X108799010Y-72814878D01*
X108828425Y-72667000D01*
X108828425Y-68167000D01*
X108799010Y-68019122D01*
X108715244Y-67893756D01*
X108589878Y-67809990D01*
X108442000Y-67780575D01*
X106442000Y-67780575D01*
X106294122Y-67809990D01*
X106168756Y-67893756D01*
X106084990Y-68019122D01*
X106055575Y-68167000D01*
X106055575Y-69913000D01*
X104692138Y-69913000D01*
X104663244Y-69869756D01*
X104644000Y-69856898D01*
X104644000Y-68199000D01*
X104605635Y-68006128D01*
X104605635Y-68006127D01*
X104496382Y-67842618D01*
X104490898Y-67837134D01*
X104556878Y-67824010D01*
X104682244Y-67740244D01*
X104766010Y-67614878D01*
X104795425Y-67467000D01*
X104795425Y-66767000D01*
X104766010Y-66619122D01*
X104682244Y-66493756D01*
X104556878Y-66409990D01*
X104409000Y-66380575D01*
X103109000Y-66380575D01*
X102961122Y-66409990D01*
X102866000Y-66473548D01*
X102866000Y-65860452D01*
X102961122Y-65924010D01*
X103109000Y-65953425D01*
X104409000Y-65953425D01*
X104556878Y-65924010D01*
X104682244Y-65840244D01*
X104766010Y-65714878D01*
X104795425Y-65567000D01*
X104795425Y-64867000D01*
X104766010Y-64719122D01*
X104682244Y-64593756D01*
X104556878Y-64509990D01*
X104490898Y-64496866D01*
X104496382Y-64491382D01*
X104605635Y-64327873D01*
X104644000Y-64135000D01*
X104644000Y-62477102D01*
X104663244Y-62464244D01*
X104709511Y-62395000D01*
X106055575Y-62395000D01*
X106055575Y-64167000D01*
X106084990Y-64314878D01*
X106168756Y-64440244D01*
X106294122Y-64524010D01*
X106442000Y-64553425D01*
X108442000Y-64553425D01*
X108589878Y-64524010D01*
X108715244Y-64440244D01*
X108799010Y-64314878D01*
X108828425Y-64167000D01*
X108828425Y-59667000D01*
X108799010Y-59519122D01*
X108715244Y-59393756D01*
X108589878Y-59309990D01*
X108442000Y-59280575D01*
X106442000Y-59280575D01*
X106294122Y-59309990D01*
X106168756Y-59393756D01*
X106084990Y-59519122D01*
X106055575Y-59667000D01*
X106055575Y-61387000D01*
X104709511Y-61387000D01*
X104677658Y-61339329D01*
X104711301Y-61305686D01*
X104769000Y-61166388D01*
X104769000Y-60887750D01*
X104674250Y-60793000D01*
X104142000Y-60793000D01*
X104142000Y-60813000D01*
X104138000Y-60813000D01*
X104138000Y-60793000D01*
X103605750Y-60793000D01*
X103511000Y-60887750D01*
X103511000Y-61166388D01*
X103568699Y-61305686D01*
X103602342Y-61339329D01*
X103532990Y-61443122D01*
X103503575Y-61591000D01*
X103503575Y-62191000D01*
X103532990Y-62338878D01*
X103616756Y-62464244D01*
X103636000Y-62477102D01*
X103636000Y-63926236D01*
X103402618Y-64159618D01*
X103293365Y-64323127D01*
X103271299Y-64434059D01*
X103262047Y-64480575D01*
X103109000Y-64480575D01*
X102961122Y-64509990D01*
X102835756Y-64593756D01*
X102756081Y-64713000D01*
X102677000Y-64713000D01*
X102484127Y-64751365D01*
X102320618Y-64860618D01*
X102005618Y-65175618D01*
X101896365Y-65339127D01*
X101896365Y-65339128D01*
X101879000Y-65426427D01*
X101879000Y-64806612D01*
X101821301Y-64667314D01*
X101714686Y-64560699D01*
X101575388Y-64503000D01*
X101246750Y-64503000D01*
X101152000Y-64597750D01*
X101152000Y-65530000D01*
X101172000Y-65530000D01*
X101172000Y-65534000D01*
X101152000Y-65534000D01*
X101152000Y-66466250D01*
X101246750Y-66561000D01*
X101298750Y-66561000D01*
X101205000Y-66654750D01*
X101205000Y-67562000D01*
X101225000Y-67562000D01*
X101225000Y-67566000D01*
X101205000Y-67566000D01*
X101205000Y-67586000D01*
X101201000Y-67586000D01*
X101201000Y-67566000D01*
X100418750Y-67566000D01*
X100324000Y-67660750D01*
X100324000Y-68264388D01*
X100381699Y-68403686D01*
X100457513Y-68479500D01*
X99950418Y-68479500D01*
X99976244Y-68462244D01*
X100060010Y-68336878D01*
X100089425Y-68189000D01*
X100089425Y-66939000D01*
X100074430Y-66863612D01*
X100324000Y-66863612D01*
X100324000Y-67467250D01*
X100418750Y-67562000D01*
X101201000Y-67562000D01*
X101201000Y-66654750D01*
X101106250Y-66560000D01*
X101054250Y-66560000D01*
X101148000Y-66466250D01*
X101148000Y-65534000D01*
X100515750Y-65534000D01*
X100421000Y-65628750D01*
X100421000Y-66257388D01*
X100478699Y-66396686D01*
X100585314Y-66503301D01*
X100722198Y-66560000D01*
X100627612Y-66560000D01*
X100488314Y-66617699D01*
X100381699Y-66724314D01*
X100324000Y-66863612D01*
X100074430Y-66863612D01*
X100060010Y-66791122D01*
X99976244Y-66665756D01*
X99850878Y-66581990D01*
X99703000Y-66552575D01*
X99679683Y-66552575D01*
X99747878Y-66539010D01*
X99873244Y-66455244D01*
X99957010Y-66329878D01*
X99986425Y-66182000D01*
X99986425Y-64882000D01*
X99971430Y-64806612D01*
X100421000Y-64806612D01*
X100421000Y-65435250D01*
X100515750Y-65530000D01*
X101148000Y-65530000D01*
X101148000Y-64597750D01*
X101053250Y-64503000D01*
X100724612Y-64503000D01*
X100585314Y-64560699D01*
X100478699Y-64667314D01*
X100421000Y-64806612D01*
X99971430Y-64806612D01*
X99957010Y-64734122D01*
X99873244Y-64608756D01*
X99747878Y-64524990D01*
X99600000Y-64495575D01*
X98900000Y-64495575D01*
X98752122Y-64524990D01*
X98626756Y-64608756D01*
X98542990Y-64734122D01*
X98513575Y-64882000D01*
X98513575Y-65028000D01*
X98298000Y-65028000D01*
X98105127Y-65066365D01*
X97941618Y-65175618D01*
X96645161Y-66472075D01*
X96234000Y-66472075D01*
X96234000Y-66430250D01*
X96139250Y-66335500D01*
X95732000Y-66335500D01*
X95732000Y-66355500D01*
X95728000Y-66355500D01*
X95728000Y-66335500D01*
X95708000Y-66335500D01*
X95708000Y-66331500D01*
X95728000Y-66331500D01*
X95728000Y-66242750D01*
X95732000Y-66238750D01*
X95732000Y-66331500D01*
X96139250Y-66331500D01*
X96234000Y-66236750D01*
X96234000Y-65908112D01*
X96176301Y-65768814D01*
X96069686Y-65662199D01*
X95930388Y-65604500D01*
X95826750Y-65604500D01*
X95732000Y-65699250D01*
X95732000Y-65903284D01*
X95728000Y-65893627D01*
X95728000Y-65699250D01*
X95634757Y-65606007D01*
X96071382Y-65169382D01*
X96171549Y-65019471D01*
X96297000Y-65044425D01*
X96997000Y-65044425D01*
X97144878Y-65015010D01*
X97270244Y-64931244D01*
X97354010Y-64805878D01*
X97383425Y-64658000D01*
X97383425Y-63358000D01*
X97354010Y-63210122D01*
X97315411Y-63152353D01*
X97351232Y-63116532D01*
X97384382Y-63094382D01*
X97407867Y-63059233D01*
X98989446Y-63059233D01*
X99007492Y-63149960D01*
X99207544Y-63585770D01*
X99559145Y-63911849D01*
X100008767Y-64078555D01*
X100201000Y-63999249D01*
X100201000Y-62867000D01*
X100205000Y-62867000D01*
X100205000Y-63999249D01*
X100397233Y-64078555D01*
X100846855Y-63911849D01*
X101198456Y-63585770D01*
X101398508Y-63149960D01*
X101416554Y-63059233D01*
X101337248Y-62867000D01*
X100205000Y-62867000D01*
X100201000Y-62867000D01*
X99068752Y-62867000D01*
X98989446Y-63059233D01*
X97407867Y-63059233D01*
X97493635Y-62930872D01*
X97532000Y-62738000D01*
X97532000Y-62670767D01*
X98989446Y-62670767D01*
X99068752Y-62863000D01*
X100201000Y-62863000D01*
X100201000Y-61730751D01*
X100205000Y-61730751D01*
X100205000Y-62863000D01*
X101337248Y-62863000D01*
X101416554Y-62670767D01*
X101398508Y-62580040D01*
X101198456Y-62144230D01*
X100846855Y-61818151D01*
X100397233Y-61651445D01*
X100205000Y-61730751D01*
X100201000Y-61730751D01*
X100008767Y-61651445D01*
X99559145Y-61818151D01*
X99207544Y-62144230D01*
X99007492Y-62580040D01*
X98989446Y-62670767D01*
X97532000Y-62670767D01*
X97532000Y-61468000D01*
X97502114Y-61317756D01*
X97493635Y-61275127D01*
X97384382Y-61111618D01*
X97003382Y-60730618D01*
X96962797Y-60703500D01*
X98966575Y-60703500D01*
X98966575Y-61175000D01*
X98995990Y-61322878D01*
X99079756Y-61448244D01*
X99205122Y-61532010D01*
X99353000Y-61561425D01*
X101053000Y-61561425D01*
X101200878Y-61532010D01*
X101326244Y-61448244D01*
X101410010Y-61322878D01*
X101439425Y-61175000D01*
X101439425Y-60415612D01*
X103511000Y-60415612D01*
X103511000Y-60694250D01*
X103605750Y-60789000D01*
X104138000Y-60789000D01*
X104138000Y-60206750D01*
X104142000Y-60206750D01*
X104142000Y-60789000D01*
X104674250Y-60789000D01*
X104769000Y-60694250D01*
X104769000Y-60415612D01*
X104711301Y-60276314D01*
X104604686Y-60169699D01*
X104465388Y-60112000D01*
X104236750Y-60112000D01*
X104142000Y-60206750D01*
X104138000Y-60206750D01*
X104043250Y-60112000D01*
X103814612Y-60112000D01*
X103675314Y-60169699D01*
X103568699Y-60276314D01*
X103511000Y-60415612D01*
X101439425Y-60415612D01*
X101439425Y-59475000D01*
X101410010Y-59327122D01*
X101326244Y-59201756D01*
X101200878Y-59117990D01*
X101053000Y-59088575D01*
X99353000Y-59088575D01*
X99205122Y-59117990D01*
X99079756Y-59201756D01*
X98995990Y-59327122D01*
X98966575Y-59475000D01*
X98966575Y-59570500D01*
X96539454Y-59570500D01*
X96518244Y-59538756D01*
X96392878Y-59454990D01*
X96245000Y-59425575D01*
X95185000Y-59425575D01*
X95037122Y-59454990D01*
X94911756Y-59538756D01*
X94827990Y-59664122D01*
X94798575Y-59812000D01*
X94798575Y-60049811D01*
X94529382Y-59780618D01*
X94409211Y-59700322D01*
X94402010Y-59664122D01*
X94318244Y-59538756D01*
X94192878Y-59454990D01*
X94045000Y-59425575D01*
X92985000Y-59425575D01*
X92837122Y-59454990D01*
X92711756Y-59538756D01*
X92690546Y-59570500D01*
X91863000Y-59570500D01*
X91646210Y-59613622D01*
X91462424Y-59736424D01*
X90999424Y-60199424D01*
X90876622Y-60383210D01*
X90833500Y-60600000D01*
X90833500Y-63165348D01*
X90753868Y-63244980D01*
X81811425Y-63244980D01*
X81811425Y-62300000D01*
X81782010Y-62152122D01*
X81698244Y-62026756D01*
X81572878Y-61942990D01*
X81425000Y-61913575D01*
X80175000Y-61913575D01*
X80027122Y-61942990D01*
X79901756Y-62026756D01*
X79817990Y-62152122D01*
X79788575Y-62300000D01*
X79788575Y-63244980D01*
X79766500Y-63244980D01*
X79766500Y-63000000D01*
X79726718Y-62800000D01*
X79723378Y-62783209D01*
X79600576Y-62599424D01*
X79300576Y-62299424D01*
X79116790Y-62176622D01*
X78900000Y-62133500D01*
X78625169Y-62133500D01*
X78525000Y-62113575D01*
X77175000Y-62113575D01*
X77027122Y-62142990D01*
X76901756Y-62226756D01*
X76817990Y-62352122D01*
X76788575Y-62500000D01*
X76788575Y-62858218D01*
X76657128Y-62884365D01*
X76531387Y-62968382D01*
X76493618Y-62993618D01*
X75643628Y-63843608D01*
X75534375Y-64007117D01*
X75523145Y-64063575D01*
X75496010Y-64199990D01*
X75496010Y-66750010D01*
X75534375Y-66942883D01*
X75643628Y-67106392D01*
X77088616Y-68551379D01*
X77088618Y-68551382D01*
X77252128Y-68660635D01*
X77445000Y-68699000D01*
X80113552Y-68699000D01*
X80306425Y-68660635D01*
X80469934Y-68551382D01*
X83243316Y-65778000D01*
X89485281Y-65778000D01*
X89333419Y-65929598D01*
X89214573Y-66215809D01*
X89214383Y-66433816D01*
X88959308Y-66539210D01*
X88739981Y-66758156D01*
X88621135Y-67044367D01*
X88620865Y-67354273D01*
X88672607Y-67479500D01*
X86191685Y-67479500D01*
X86191680Y-67479499D01*
X85998808Y-67517865D01*
X85835298Y-67627118D01*
X85835296Y-67627121D01*
X80052416Y-73410000D01*
X75438000Y-73410000D01*
X75245128Y-73448365D01*
X75081618Y-73557618D01*
X74319618Y-74319618D01*
X74210365Y-74483127D01*
X74200587Y-74532284D01*
X74172000Y-74676000D01*
X74114000Y-74676000D01*
X74114000Y-60896750D01*
X79796000Y-60896750D01*
X79796000Y-61375388D01*
X79853699Y-61514686D01*
X79960314Y-61621301D01*
X80099612Y-61679000D01*
X80703250Y-61679000D01*
X80798000Y-61584250D01*
X80798000Y-60802000D01*
X80802000Y-60802000D01*
X80802000Y-61584250D01*
X80896750Y-61679000D01*
X81500388Y-61679000D01*
X81639686Y-61621301D01*
X81746301Y-61514686D01*
X81804000Y-61375388D01*
X81804000Y-60896750D01*
X81709250Y-60802000D01*
X80802000Y-60802000D01*
X80798000Y-60802000D01*
X79890750Y-60802000D01*
X79796000Y-60896750D01*
X74114000Y-60896750D01*
X74114000Y-60224612D01*
X79796000Y-60224612D01*
X79796000Y-60703250D01*
X79890750Y-60798000D01*
X80798000Y-60798000D01*
X80798000Y-60015750D01*
X80802000Y-60015750D01*
X80802000Y-60798000D01*
X81709250Y-60798000D01*
X81804000Y-60703250D01*
X81804000Y-60224612D01*
X81746301Y-60085314D01*
X81639686Y-59978699D01*
X81500388Y-59921000D01*
X80896750Y-59921000D01*
X80802000Y-60015750D01*
X80798000Y-60015750D01*
X80703250Y-59921000D01*
X80099612Y-59921000D01*
X79960314Y-59978699D01*
X79853699Y-60085314D01*
X79796000Y-60224612D01*
X74114000Y-60224612D01*
X74114000Y-56334000D01*
X113846000Y-56334000D01*
X113846000Y-82096000D01*
G36*
X93119500Y-67869000D02*
X94840500Y-67869000D01*
X94840500Y-67849000D01*
X94844500Y-67849000D01*
X94844500Y-67869000D01*
X94864500Y-67869000D01*
X94864500Y-67873000D01*
X94844500Y-67873000D01*
X94844500Y-69594000D01*
X94864500Y-69594000D01*
X94864500Y-69598000D01*
X94844500Y-69598000D01*
X94844500Y-69618000D01*
X94840500Y-69618000D01*
X94840500Y-69598000D01*
X93119500Y-69598000D01*
X93119500Y-69618000D01*
X93115500Y-69618000D01*
X93115500Y-69598000D01*
X93095500Y-69598000D01*
X93095500Y-69594000D01*
X93115500Y-69594000D01*
X93115500Y-67873000D01*
X93119500Y-67873000D01*
X93119500Y-69594000D01*
X94840500Y-69594000D01*
X94840500Y-67873000D01*
X93119500Y-67873000D01*
X93115500Y-67873000D01*
X93095500Y-67873000D01*
X93095500Y-67869000D01*
X93115500Y-67869000D01*
X93115500Y-67849000D01*
X93119500Y-67849000D01*
X93119500Y-67869000D01*
X93119500Y-67869000D01*
G37*
X93119500Y-67869000D02*
X94840500Y-67869000D01*
X94840500Y-67849000D01*
X94844500Y-67849000D01*
X94844500Y-67869000D01*
X94864500Y-67869000D01*
X94864500Y-67873000D01*
X94844500Y-67873000D01*
X94844500Y-69594000D01*
X94864500Y-69594000D01*
X94864500Y-69598000D01*
X94844500Y-69598000D01*
X94844500Y-69618000D01*
X94840500Y-69618000D01*
X94840500Y-69598000D01*
X93119500Y-69598000D01*
X93119500Y-69618000D01*
X93115500Y-69618000D01*
X93115500Y-69598000D01*
X93095500Y-69598000D01*
X93095500Y-69594000D01*
X93115500Y-69594000D01*
X93115500Y-67873000D01*
X93119500Y-67873000D01*
X93119500Y-69594000D01*
X94840500Y-69594000D01*
X94840500Y-67873000D01*
X93119500Y-67873000D01*
X93115500Y-67873000D01*
X93095500Y-67873000D01*
X93095500Y-67869000D01*
X93115500Y-67869000D01*
X93115500Y-67849000D01*
X93119500Y-67849000D01*
X93119500Y-67869000D01*
G36*
X79697684Y-67191000D02*
X77903764Y-67191000D01*
X77004000Y-66291236D01*
X77004000Y-65839396D01*
X77099612Y-65879000D01*
X77753250Y-65879000D01*
X77848000Y-65784250D01*
X77848000Y-65302000D01*
X77852000Y-65302000D01*
X77852000Y-65784250D01*
X77946750Y-65879000D01*
X78600388Y-65879000D01*
X78739686Y-65821301D01*
X78846301Y-65714686D01*
X78904000Y-65575388D01*
X78904000Y-65396750D01*
X78809250Y-65302000D01*
X77852000Y-65302000D01*
X77848000Y-65302000D01*
X77828000Y-65302000D01*
X77828000Y-65298000D01*
X77848000Y-65298000D01*
X77848000Y-65278000D01*
X77852000Y-65278000D01*
X77852000Y-65298000D01*
X78809250Y-65298000D01*
X78904000Y-65203250D01*
X78904000Y-65154000D01*
X79150000Y-65154000D01*
X79342873Y-65115635D01*
X79506382Y-65006382D01*
X79684774Y-64827990D01*
X82060694Y-64827990D01*
X79697684Y-67191000D01*
X79697684Y-67191000D01*
G37*
X79697684Y-67191000D02*
X77903764Y-67191000D01*
X77004000Y-66291236D01*
X77004000Y-65839396D01*
X77099612Y-65879000D01*
X77753250Y-65879000D01*
X77848000Y-65784250D01*
X77848000Y-65302000D01*
X77852000Y-65302000D01*
X77852000Y-65784250D01*
X77946750Y-65879000D01*
X78600388Y-65879000D01*
X78739686Y-65821301D01*
X78846301Y-65714686D01*
X78904000Y-65575388D01*
X78904000Y-65396750D01*
X78809250Y-65302000D01*
X77852000Y-65302000D01*
X77848000Y-65302000D01*
X77828000Y-65302000D01*
X77828000Y-65298000D01*
X77848000Y-65298000D01*
X77848000Y-65278000D01*
X77852000Y-65278000D01*
X77852000Y-65298000D01*
X78809250Y-65298000D01*
X78904000Y-65203250D01*
X78904000Y-65154000D01*
X79150000Y-65154000D01*
X79342873Y-65115635D01*
X79506382Y-65006382D01*
X79684774Y-64827990D01*
X82060694Y-64827990D01*
X79697684Y-67191000D01*
G36*
X92606000Y-60990250D02*
X92700750Y-61085000D01*
X93513000Y-61085000D01*
X93513000Y-61065000D01*
X93517000Y-61065000D01*
X93517000Y-61085000D01*
X93537000Y-61085000D01*
X93537000Y-61089000D01*
X93517000Y-61089000D01*
X93517000Y-61109000D01*
X93513000Y-61109000D01*
X93513000Y-61089000D01*
X92700750Y-61089000D01*
X92606000Y-61183750D01*
X92606000Y-61487388D01*
X92634036Y-61555073D01*
X92627990Y-61564122D01*
X92598575Y-61712000D01*
X92598575Y-62362000D01*
X92627990Y-62509878D01*
X92711756Y-62635244D01*
X92806145Y-62698312D01*
X92717565Y-62911634D01*
X92717297Y-63218846D01*
X92430152Y-63218846D01*
X92237279Y-63257211D01*
X92073770Y-63366464D01*
X91948192Y-63492042D01*
X91966500Y-63400000D01*
X91966500Y-60834652D01*
X92097652Y-60703500D01*
X92606000Y-60703500D01*
X92606000Y-60990250D01*
X92606000Y-60990250D01*
G37*
X92606000Y-60990250D02*
X92700750Y-61085000D01*
X93513000Y-61085000D01*
X93513000Y-61065000D01*
X93517000Y-61065000D01*
X93517000Y-61085000D01*
X93537000Y-61085000D01*
X93537000Y-61089000D01*
X93517000Y-61089000D01*
X93517000Y-61109000D01*
X93513000Y-61109000D01*
X93513000Y-61089000D01*
X92700750Y-61089000D01*
X92606000Y-61183750D01*
X92606000Y-61487388D01*
X92634036Y-61555073D01*
X92627990Y-61564122D01*
X92598575Y-61712000D01*
X92598575Y-62362000D01*
X92627990Y-62509878D01*
X92711756Y-62635244D01*
X92806145Y-62698312D01*
X92717565Y-62911634D01*
X92717297Y-63218846D01*
X92430152Y-63218846D01*
X92237279Y-63257211D01*
X92073770Y-63366464D01*
X91948192Y-63492042D01*
X91966500Y-63400000D01*
X91966500Y-60834652D01*
X92097652Y-60703500D01*
X92606000Y-60703500D01*
X92606000Y-60990250D01*
M02*
